999
Created by rsd2dxf
  0
SECTION
  2
ENTITIES
  0
3DFACE
  8
Layer
 10
0.000000E+000
 20
0.000000E+000
 30
2.000000E+002
 11
5.000000E+001
 21
1.339746E+001
 31
1.931852E+002
 12
5.176381E+001
 22
0.000000E+000
 32
1.931852E+002
 13
5.176381E+001
 23
0.000000E+000
 33
1.931852E+002
  0
3DFACE
  8
Layer
 10
0.000000E+000
 20
0.000000E+000
 30
2.000000E+002
 11
4.482877E+001
 21
2.588190E+001
 31
1.931852E+002
 12
5.000000E+001
 22
1.339746E+001
 32
1.931852E+002
 13
5.000000E+001
 23
1.339746E+001
 33
1.931852E+002
  0
3DFACE
  8
Layer
 10
0.000000E+000
 20
0.000000E+000
 30
2.000000E+002
 11
3.660254E+001
 21
3.660254E+001
 31
1.931852E+002
 12
4.482877E+001
 22
2.588190E+001
 32
1.931852E+002
 13
4.482877E+001
 23
2.588190E+001
 33
1.931852E+002
  0
3DFACE
  8
Layer
 10
0.000000E+000
 20
0.000000E+000
 30
2.000000E+002
 11
2.588190E+001
 21
4.482877E+001
 31
1.931852E+002
 12
3.660254E+001
 22
3.660254E+001
 32
1.931852E+002
 13
3.660254E+001
 23
3.660254E+001
 33
1.931852E+002
  0
3DFACE
  8
Layer
 10
0.000000E+000
 20
0.000000E+000
 30
2.000000E+002
 11
1.339746E+001
 21
5.000000E+001
 31
1.931852E+002
 12
2.588190E+001
 22
4.482877E+001
 32
1.931852E+002
 13
2.588190E+001
 23
4.482877E+001
 33
1.931852E+002
  0
3DFACE
  8
Layer
 10
0.000000E+000
 20
0.000000E+000
 30
2.000000E+002
 11
0.000000E+000
 21
5.176381E+001
 31
1.931852E+002
 12
1.339746E+001
 22
5.000000E+001
 32
1.931852E+002
 13
1.339746E+001
 23
5.000000E+001
 33
1.931852E+002
  0
3DFACE
  8
Layer
 10
0.000000E+000
 20
0.000000E+000
 30
2.000000E+002
 11
-1.339746E+001
 21
5.000000E+001
 31
1.931852E+002
 12
0.000000E+000
 22
5.176381E+001
 32
1.931852E+002
 13
0.000000E+000
 23
5.176381E+001
 33
1.931852E+002
  0
3DFACE
  8
Layer
 10
0.000000E+000
 20
0.000000E+000
 30
2.000000E+002
 11
-2.588190E+001
 21
4.482877E+001
 31
1.931852E+002
 12
-1.339746E+001
 22
5.000000E+001
 32
1.931852E+002
 13
-1.339746E+001
 23
5.000000E+001
 33
1.931852E+002
  0
3DFACE
  8
Layer
 10
0.000000E+000
 20
0.000000E+000
 30
2.000000E+002
 11
-3.660254E+001
 21
3.660254E+001
 31
1.931852E+002
 12
-2.588190E+001
 22
4.482877E+001
 32
1.931852E+002
 13
-2.588190E+001
 23
4.482877E+001
 33
1.931852E+002
  0
3DFACE
  8
Layer
 10
0.000000E+000
 20
0.000000E+000
 30
2.000000E+002
 11
-4.482877E+001
 21
2.588190E+001
 31
1.931852E+002
 12
-3.660254E+001
 22
3.660254E+001
 32
1.931852E+002
 13
-3.660254E+001
 23
3.660254E+001
 33
1.931852E+002
  0
3DFACE
  8
Layer
 10
0.000000E+000
 20
0.000000E+000
 30
2.000000E+002
 11
-5.000000E+001
 21
1.339746E+001
 31
1.931852E+002
 12
-4.482877E+001
 22
2.588190E+001
 32
1.931852E+002
 13
-4.482877E+001
 23
2.588190E+001
 33
1.931852E+002
  0
3DFACE
  8
Layer
 10
0.000000E+000
 20
0.000000E+000
 30
2.000000E+002
 11
-5.176381E+001
 21
0.000000E+000
 31
1.931852E+002
 12
-5.000000E+001
 22
1.339746E+001
 32
1.931852E+002
 13
-5.000000E+001
 23
1.339746E+001
 33
1.931852E+002
  0
3DFACE
  8
Layer
 10
0.000000E+000
 20
0.000000E+000
 30
2.000000E+002
 11
-5.000000E+001
 21
-1.339746E+001
 31
1.931852E+002
 12
-5.176381E+001
 22
0.000000E+000
 32
1.931852E+002
 13
-5.176381E+001
 23
0.000000E+000
 33
1.931852E+002
  0
3DFACE
  8
Layer
 10
0.000000E+000
 20
0.000000E+000
 30
2.000000E+002
 11
-4.482877E+001
 21
-2.588190E+001
 31
1.931852E+002
 12
-5.000000E+001
 22
-1.339746E+001
 32
1.931852E+002
 13
-5.000000E+001
 23
-1.339746E+001
 33
1.931852E+002
  0
3DFACE
  8
Layer
 10
0.000000E+000
 20
0.000000E+000
 30
2.000000E+002
 11
-3.660254E+001
 21
-3.660254E+001
 31
1.931852E+002
 12
-4.482877E+001
 22
-2.588190E+001
 32
1.931852E+002
 13
-4.482877E+001
 23
-2.588190E+001
 33
1.931852E+002
  0
3DFACE
  8
Layer
 10
0.000000E+000
 20
0.000000E+000
 30
2.000000E+002
 11
-2.588190E+001
 21
-4.482877E+001
 31
1.931852E+002
 12
-3.660254E+001
 22
-3.660254E+001
 32
1.931852E+002
 13
-3.660254E+001
 23
-3.660254E+001
 33
1.931852E+002
  0
3DFACE
  8
Layer
 10
0.000000E+000
 20
0.000000E+000
 30
2.000000E+002
 11
-1.339746E+001
 21
-5.000000E+001
 31
1.931852E+002
 12
-2.588190E+001
 22
-4.482877E+001
 32
1.931852E+002
 13
-2.588190E+001
 23
-4.482877E+001
 33
1.931852E+002
  0
3DFACE
  8
Layer
 10
0.000000E+000
 20
0.000000E+000
 30
2.000000E+002
 11
0.000000E+000
 21
-5.176381E+001
 31
1.931852E+002
 12
-1.339746E+001
 22
-5.000000E+001
 32
1.931852E+002
 13
-1.339746E+001
 23
-5.000000E+001
 33
1.931852E+002
  0
3DFACE
  8
Layer
 10
0.000000E+000
 20
0.000000E+000
 30
2.000000E+002
 11
1.339746E+001
 21
-5.000000E+001
 31
1.931852E+002
 12
0.000000E+000
 22
-5.176381E+001
 32
1.931852E+002
 13
0.000000E+000
 23
-5.176381E+001
 33
1.931852E+002
  0
3DFACE
  8
Layer
 10
0.000000E+000
 20
0.000000E+000
 30
2.000000E+002
 11
2.588190E+001
 21
-4.482877E+001
 31
1.931852E+002
 12
1.339746E+001
 22
-5.000000E+001
 32
1.931852E+002
 13
1.339746E+001
 23
-5.000000E+001
 33
1.931852E+002
  0
3DFACE
  8
Layer
 10
0.000000E+000
 20
0.000000E+000
 30
2.000000E+002
 11
3.660254E+001
 21
-3.660254E+001
 31
1.931852E+002
 12
2.588190E+001
 22
-4.482877E+001
 32
1.931852E+002
 13
2.588190E+001
 23
-4.482877E+001
 33
1.931852E+002
  0
3DFACE
  8
Layer
 10
0.000000E+000
 20
0.000000E+000
 30
2.000000E+002
 11
4.482877E+001
 21
-2.588190E+001
 31
1.931852E+002
 12
3.660254E+001
 22
-3.660254E+001
 32
1.931852E+002
 13
3.660254E+001
 23
-3.660254E+001
 33
1.931852E+002
  0
3DFACE
  8
Layer
 10
0.000000E+000
 20
0.000000E+000
 30
2.000000E+002
 11
5.000000E+001
 21
-1.339746E+001
 31
1.931852E+002
 12
4.482877E+001
 22
-2.588190E+001
 32
1.931852E+002
 13
4.482877E+001
 23
-2.588190E+001
 33
1.931852E+002
  0
3DFACE
  8
Layer
 10
0.000000E+000
 20
0.000000E+000
 30
2.000000E+002
 11
5.176381E+001
 21
0.000000E+000
 31
1.931852E+002
 12
5.000000E+001
 22
-1.339746E+001
 32
1.931852E+002
 13
5.000000E+001
 23
-1.339746E+001
 33
1.931852E+002
  0
3DFACE
  8
Layer
 10
1.000000E+002
 20
0.000000E+000
 30
1.732051E+002
 11
5.176381E+001
 21
0.000000E+000
 31
1.931852E+002
 12
5.000000E+001
 22
1.339746E+001
 32
1.931852E+002
 13
5.000000E+001
 23
1.339746E+001
 33
1.931852E+002
  0
3DFACE
  8
Layer
 10
1.000000E+002
 20
0.000000E+000
 30
1.732051E+002
 11
5.000000E+001
 21
1.339746E+001
 31
1.931852E+002
 12
9.659258E+001
 22
2.588190E+001
 32
1.732051E+002
 13
9.659258E+001
 23
2.588190E+001
 33
1.732051E+002
  0
3DFACE
  8
Layer
 10
9.659258E+001
 20
2.588190E+001
 30
1.732051E+002
 11
5.000000E+001
 21
1.339746E+001
 31
1.931852E+002
 12
4.482877E+001
 22
2.588190E+001
 32
1.931852E+002
 13
4.482877E+001
 23
2.588190E+001
 33
1.931852E+002
  0
3DFACE
  8
Layer
 10
9.659258E+001
 20
2.588190E+001
 30
1.732051E+002
 11
4.482877E+001
 21
2.588190E+001
 31
1.931852E+002
 12
8.660254E+001
 22
5.000000E+001
 32
1.732051E+002
 13
8.660254E+001
 23
5.000000E+001
 33
1.732051E+002
  0
3DFACE
  8
Layer
 10
8.660254E+001
 20
5.000000E+001
 30
1.732051E+002
 11
4.482877E+001
 21
2.588190E+001
 31
1.931852E+002
 12
3.660254E+001
 22
3.660254E+001
 32
1.931852E+002
 13
3.660254E+001
 23
3.660254E+001
 33
1.931852E+002
  0
3DFACE
  8
Layer
 10
8.660254E+001
 20
5.000000E+001
 30
1.732051E+002
 11
3.660254E+001
 21
3.660254E+001
 31
1.931852E+002
 12
7.071067E+001
 22
7.071067E+001
 32
1.732051E+002
 13
7.071067E+001
 23
7.071067E+001
 33
1.732051E+002
  0
3DFACE
  8
Layer
 10
7.071067E+001
 20
7.071067E+001
 30
1.732051E+002
 11
3.660254E+001
 21
3.660254E+001
 31
1.931852E+002
 12
2.588190E+001
 22
4.482877E+001
 32
1.931852E+002
 13
2.588190E+001
 23
4.482877E+001
 33
1.931852E+002
  0
3DFACE
  8
Layer
 10
7.071067E+001
 20
7.071067E+001
 30
1.732051E+002
 11
2.588190E+001
 21
4.482877E+001
 31
1.931852E+002
 12
5.000000E+001
 22
8.660254E+001
 32
1.732051E+002
 13
5.000000E+001
 23
8.660254E+001
 33
1.732051E+002
  0
3DFACE
  8
Layer
 10
5.000000E+001
 20
8.660254E+001
 30
1.732051E+002
 11
2.588190E+001
 21
4.482877E+001
 31
1.931852E+002
 12
1.339746E+001
 22
5.000000E+001
 32
1.931852E+002
 13
1.339746E+001
 23
5.000000E+001
 33
1.931852E+002
  0
3DFACE
  8
Layer
 10
5.000000E+001
 20
8.660254E+001
 30
1.732051E+002
 11
1.339746E+001
 21
5.000000E+001
 31
1.931852E+002
 12
2.588190E+001
 22
9.659258E+001
 32
1.732051E+002
 13
2.588190E+001
 23
9.659258E+001
 33
1.732051E+002
  0
3DFACE
  8
Layer
 10
2.588190E+001
 20
9.659258E+001
 30
1.732051E+002
 11
1.339746E+001
 21
5.000000E+001
 31
1.931852E+002
 12
0.000000E+000
 22
5.176381E+001
 32
1.931852E+002
 13
0.000000E+000
 23
5.176381E+001
 33
1.931852E+002
  0
3DFACE
  8
Layer
 10
2.588190E+001
 20
9.659258E+001
 30
1.732051E+002
 11
0.000000E+000
 21
5.176381E+001
 31
1.931852E+002
 12
0.000000E+000
 22
1.000000E+002
 32
1.732051E+002
 13
0.000000E+000
 23
1.000000E+002
 33
1.732051E+002
  0
3DFACE
  8
Layer
 10
0.000000E+000
 20
1.000000E+002
 30
1.732051E+002
 11
0.000000E+000
 21
5.176381E+001
 31
1.931852E+002
 12
-1.339746E+001
 22
5.000000E+001
 32
1.931852E+002
 13
-1.339746E+001
 23
5.000000E+001
 33
1.931852E+002
  0
3DFACE
  8
Layer
 10
0.000000E+000
 20
1.000000E+002
 30
1.732051E+002
 11
-1.339746E+001
 21
5.000000E+001
 31
1.931852E+002
 12
-2.588190E+001
 22
9.659258E+001
 32
1.732051E+002
 13
-2.588190E+001
 23
9.659258E+001
 33
1.732051E+002
  0
3DFACE
  8
Layer
 10
-2.588190E+001
 20
9.659258E+001
 30
1.732051E+002
 11
-1.339746E+001
 21
5.000000E+001
 31
1.931852E+002
 12
-2.588190E+001
 22
4.482877E+001
 32
1.931852E+002
 13
-2.588190E+001
 23
4.482877E+001
 33
1.931852E+002
  0
3DFACE
  8
Layer
 10
-2.588190E+001
 20
9.659258E+001
 30
1.732051E+002
 11
-2.588190E+001
 21
4.482877E+001
 31
1.931852E+002
 12
-5.000000E+001
 22
8.660254E+001
 32
1.732051E+002
 13
-5.000000E+001
 23
8.660254E+001
 33
1.732051E+002
  0
3DFACE
  8
Layer
 10
-5.000000E+001
 20
8.660254E+001
 30
1.732051E+002
 11
-2.588190E+001
 21
4.482877E+001
 31
1.931852E+002
 12
-3.660254E+001
 22
3.660254E+001
 32
1.931852E+002
 13
-3.660254E+001
 23
3.660254E+001
 33
1.931852E+002
  0
3DFACE
  8
Layer
 10
-5.000000E+001
 20
8.660254E+001
 30
1.732051E+002
 11
-3.660254E+001
 21
3.660254E+001
 31
1.931852E+002
 12
-7.071067E+001
 22
7.071067E+001
 32
1.732051E+002
 13
-7.071067E+001
 23
7.071067E+001
 33
1.732051E+002
  0
3DFACE
  8
Layer
 10
-7.071067E+001
 20
7.071067E+001
 30
1.732051E+002
 11
-3.660254E+001
 21
3.660254E+001
 31
1.931852E+002
 12
-4.482877E+001
 22
2.588190E+001
 32
1.931852E+002
 13
-4.482877E+001
 23
2.588190E+001
 33
1.931852E+002
  0
3DFACE
  8
Layer
 10
-7.071067E+001
 20
7.071067E+001
 30
1.732051E+002
 11
-4.482877E+001
 21
2.588190E+001
 31
1.931852E+002
 12
-8.660254E+001
 22
5.000000E+001
 32
1.732051E+002
 13
-8.660254E+001
 23
5.000000E+001
 33
1.732051E+002
  0
3DFACE
  8
Layer
 10
-8.660254E+001
 20
5.000000E+001
 30
1.732051E+002
 11
-4.482877E+001
 21
2.588190E+001
 31
1.931852E+002
 12
-5.000000E+001
 22
1.339746E+001
 32
1.931852E+002
 13
-5.000000E+001
 23
1.339746E+001
 33
1.931852E+002
  0
3DFACE
  8
Layer
 10
-8.660254E+001
 20
5.000000E+001
 30
1.732051E+002
 11
-5.000000E+001
 21
1.339746E+001
 31
1.931852E+002
 12
-9.659258E+001
 22
2.588190E+001
 32
1.732051E+002
 13
-9.659258E+001
 23
2.588190E+001
 33
1.732051E+002
  0
3DFACE
  8
Layer
 10
-9.659258E+001
 20
2.588190E+001
 30
1.732051E+002
 11
-5.000000E+001
 21
1.339746E+001
 31
1.931852E+002
 12
-5.176381E+001
 22
0.000000E+000
 32
1.931852E+002
 13
-5.176381E+001
 23
0.000000E+000
 33
1.931852E+002
  0
3DFACE
  8
Layer
 10
-9.659258E+001
 20
2.588190E+001
 30
1.732051E+002
 11
-5.176381E+001
 21
0.000000E+000
 31
1.931852E+002
 12
-1.000000E+002
 22
0.000000E+000
 32
1.732051E+002
 13
-1.000000E+002
 23
0.000000E+000
 33
1.732051E+002
  0
3DFACE
  8
Layer
 10
-1.000000E+002
 20
0.000000E+000
 30
1.732051E+002
 11
-5.176381E+001
 21
0.000000E+000
 31
1.931852E+002
 12
-5.000000E+001
 22
-1.339746E+001
 32
1.931852E+002
 13
-5.000000E+001
 23
-1.339746E+001
 33
1.931852E+002
  0
3DFACE
  8
Layer
 10
-1.000000E+002
 20
0.000000E+000
 30
1.732051E+002
 11
-5.000000E+001
 21
-1.339746E+001
 31
1.931852E+002
 12
-9.659258E+001
 22
-2.588190E+001
 32
1.732051E+002
 13
-9.659258E+001
 23
-2.588190E+001
 33
1.732051E+002
  0
3DFACE
  8
Layer
 10
-9.659258E+001
 20
-2.588190E+001
 30
1.732051E+002
 11
-5.000000E+001
 21
-1.339746E+001
 31
1.931852E+002
 12
-4.482877E+001
 22
-2.588190E+001
 32
1.931852E+002
 13
-4.482877E+001
 23
-2.588190E+001
 33
1.931852E+002
  0
3DFACE
  8
Layer
 10
-9.659258E+001
 20
-2.588190E+001
 30
1.732051E+002
 11
-4.482877E+001
 21
-2.588190E+001
 31
1.931852E+002
 12
-8.660254E+001
 22
-5.000000E+001
 32
1.732051E+002
 13
-8.660254E+001
 23
-5.000000E+001
 33
1.732051E+002
  0
3DFACE
  8
Layer
 10
-8.660254E+001
 20
-5.000000E+001
 30
1.732051E+002
 11
-4.482877E+001
 21
-2.588190E+001
 31
1.931852E+002
 12
-3.660254E+001
 22
-3.660254E+001
 32
1.931852E+002
 13
-3.660254E+001
 23
-3.660254E+001
 33
1.931852E+002
  0
3DFACE
  8
Layer
 10
-8.660254E+001
 20
-5.000000E+001
 30
1.732051E+002
 11
-3.660254E+001
 21
-3.660254E+001
 31
1.931852E+002
 12
-7.071067E+001
 22
-7.071067E+001
 32
1.732051E+002
 13
-7.071067E+001
 23
-7.071067E+001
 33
1.732051E+002
  0
3DFACE
  8
Layer
 10
-7.071067E+001
 20
-7.071067E+001
 30
1.732051E+002
 11
-3.660254E+001
 21
-3.660254E+001
 31
1.931852E+002
 12
-2.588190E+001
 22
-4.482877E+001
 32
1.931852E+002
 13
-2.588190E+001
 23
-4.482877E+001
 33
1.931852E+002
  0
3DFACE
  8
Layer
 10
-7.071067E+001
 20
-7.071067E+001
 30
1.732051E+002
 11
-2.588190E+001
 21
-4.482877E+001
 31
1.931852E+002
 12
-5.000000E+001
 22
-8.660254E+001
 32
1.732051E+002
 13
-5.000000E+001
 23
-8.660254E+001
 33
1.732051E+002
  0
3DFACE
  8
Layer
 10
-5.000000E+001
 20
-8.660254E+001
 30
1.732051E+002
 11
-2.588190E+001
 21
-4.482877E+001
 31
1.931852E+002
 12
-1.339746E+001
 22
-5.000000E+001
 32
1.931852E+002
 13
-1.339746E+001
 23
-5.000000E+001
 33
1.931852E+002
  0
3DFACE
  8
Layer
 10
-5.000000E+001
 20
-8.660254E+001
 30
1.732051E+002
 11
-1.339746E+001
 21
-5.000000E+001
 31
1.931852E+002
 12
-2.588190E+001
 22
-9.659258E+001
 32
1.732051E+002
 13
-2.588190E+001
 23
-9.659258E+001
 33
1.732051E+002
  0
3DFACE
  8
Layer
 10
-2.588190E+001
 20
-9.659258E+001
 30
1.732051E+002
 11
-1.339746E+001
 21
-5.000000E+001
 31
1.931852E+002
 12
0.000000E+000
 22
-5.176381E+001
 32
1.931852E+002
 13
0.000000E+000
 23
-5.176381E+001
 33
1.931852E+002
  0
3DFACE
  8
Layer
 10
-2.588190E+001
 20
-9.659258E+001
 30
1.732051E+002
 11
0.000000E+000
 21
-5.176381E+001
 31
1.931852E+002
 12
0.000000E+000
 22
-1.000000E+002
 32
1.732051E+002
 13
0.000000E+000
 23
-1.000000E+002
 33
1.732051E+002
  0
3DFACE
  8
Layer
 10
0.000000E+000
 20
-1.000000E+002
 30
1.732051E+002
 11
0.000000E+000
 21
-5.176381E+001
 31
1.931852E+002
 12
1.339746E+001
 22
-5.000000E+001
 32
1.931852E+002
 13
1.339746E+001
 23
-5.000000E+001
 33
1.931852E+002
  0
3DFACE
  8
Layer
 10
0.000000E+000
 20
-1.000000E+002
 30
1.732051E+002
 11
1.339746E+001
 21
-5.000000E+001
 31
1.931852E+002
 12
2.588190E+001
 22
-9.659258E+001
 32
1.732051E+002
 13
2.588190E+001
 23
-9.659258E+001
 33
1.732051E+002
  0
3DFACE
  8
Layer
 10
2.588190E+001
 20
-9.659258E+001
 30
1.732051E+002
 11
1.339746E+001
 21
-5.000000E+001
 31
1.931852E+002
 12
2.588190E+001
 22
-4.482877E+001
 32
1.931852E+002
 13
2.588190E+001
 23
-4.482877E+001
 33
1.931852E+002
  0
3DFACE
  8
Layer
 10
2.588190E+001
 20
-9.659258E+001
 30
1.732051E+002
 11
2.588190E+001
 21
-4.482877E+001
 31
1.931852E+002
 12
5.000000E+001
 22
-8.660254E+001
 32
1.732051E+002
 13
5.000000E+001
 23
-8.660254E+001
 33
1.732051E+002
  0
3DFACE
  8
Layer
 10
5.000000E+001
 20
-8.660254E+001
 30
1.732051E+002
 11
2.588190E+001
 21
-4.482877E+001
 31
1.931852E+002
 12
3.660254E+001
 22
-3.660254E+001
 32
1.931852E+002
 13
3.660254E+001
 23
-3.660254E+001
 33
1.931852E+002
  0
3DFACE
  8
Layer
 10
5.000000E+001
 20
-8.660254E+001
 30
1.732051E+002
 11
3.660254E+001
 21
-3.660254E+001
 31
1.931852E+002
 12
7.071067E+001
 22
-7.071067E+001
 32
1.732051E+002
 13
7.071067E+001
 23
-7.071067E+001
 33
1.732051E+002
  0
3DFACE
  8
Layer
 10
7.071067E+001
 20
-7.071067E+001
 30
1.732051E+002
 11
3.660254E+001
 21
-3.660254E+001
 31
1.931852E+002
 12
4.482877E+001
 22
-2.588190E+001
 32
1.931852E+002
 13
4.482877E+001
 23
-2.588190E+001
 33
1.931852E+002
  0
3DFACE
  8
Layer
 10
7.071067E+001
 20
-7.071067E+001
 30
1.732051E+002
 11
4.482877E+001
 21
-2.588190E+001
 31
1.931852E+002
 12
8.660254E+001
 22
-5.000000E+001
 32
1.732051E+002
 13
8.660254E+001
 23
-5.000000E+001
 33
1.732051E+002
  0
3DFACE
  8
Layer
 10
8.660254E+001
 20
-5.000000E+001
 30
1.732051E+002
 11
4.482877E+001
 21
-2.588190E+001
 31
1.931852E+002
 12
5.000000E+001
 22
-1.339746E+001
 32
1.931852E+002
 13
5.000000E+001
 23
-1.339746E+001
 33
1.931852E+002
  0
3DFACE
  8
Layer
 10
8.660254E+001
 20
-5.000000E+001
 30
1.732051E+002
 11
5.000000E+001
 21
-1.339746E+001
 31
1.931852E+002
 12
9.659258E+001
 22
-2.588190E+001
 32
1.732051E+002
 13
9.659258E+001
 23
-2.588190E+001
 33
1.732051E+002
  0
3DFACE
  8
Layer
 10
9.659258E+001
 20
-2.588190E+001
 30
1.732051E+002
 11
5.000000E+001
 21
-1.339746E+001
 31
1.931852E+002
 12
5.176381E+001
 22
0.000000E+000
 32
1.931852E+002
 13
5.176381E+001
 23
0.000000E+000
 33
1.931852E+002
  0
3DFACE
  8
Layer
 10
9.659258E+001
 20
-2.588190E+001
 30
1.732051E+002
 11
5.176381E+001
 21
0.000000E+000
 31
1.931852E+002
 12
1.000000E+002
 22
0.000000E+000
 32
1.732051E+002
 13
1.000000E+002
 23
0.000000E+000
 33
1.732051E+002
  0
3DFACE
  8
Layer
 10
1.414213E+002
 20
0.000000E+000
 30
1.414213E+002
 11
1.000000E+002
 21
0.000000E+000
 31
1.732051E+002
 12
9.659258E+001
 22
2.588190E+001
 32
1.732051E+002
 13
9.659258E+001
 23
2.588190E+001
 33
1.732051E+002
  0
3DFACE
  8
Layer
 10
1.414213E+002
 20
0.000000E+000
 30
1.414213E+002
 11
9.659258E+001
 21
2.588190E+001
 31
1.732051E+002
 12
1.366026E+002
 22
3.660254E+001
 32
1.414213E+002
 13
1.366026E+002
 23
3.660254E+001
 33
1.414213E+002
  0
3DFACE
  8
Layer
 10
1.366026E+002
 20
3.660254E+001
 30
1.414213E+002
 11
9.659258E+001
 21
2.588190E+001
 31
1.732051E+002
 12
8.660254E+001
 22
5.000000E+001
 32
1.732051E+002
 13
8.660254E+001
 23
5.000000E+001
 33
1.732051E+002
  0
3DFACE
  8
Layer
 10
1.366026E+002
 20
3.660254E+001
 30
1.414213E+002
 11
8.660254E+001
 21
5.000000E+001
 31
1.732051E+002
 12
1.224745E+002
 22
7.071067E+001
 32
1.414213E+002
 13
1.224745E+002
 23
7.071067E+001
 33
1.414213E+002
  0
3DFACE
  8
Layer
 10
1.224745E+002
 20
7.071067E+001
 30
1.414213E+002
 11
8.660254E+001
 21
5.000000E+001
 31
1.732051E+002
 12
7.071067E+001
 22
7.071067E+001
 32
1.732051E+002
 13
7.071067E+001
 23
7.071067E+001
 33
1.732051E+002
  0
3DFACE
  8
Layer
 10
1.224745E+002
 20
7.071067E+001
 30
1.414213E+002
 11
7.071067E+001
 21
7.071067E+001
 31
1.732051E+002
 12
1.000000E+002
 22
1.000000E+002
 32
1.414213E+002
 13
1.000000E+002
 23
1.000000E+002
 33
1.414213E+002
  0
3DFACE
  8
Layer
 10
1.000000E+002
 20
1.000000E+002
 30
1.414213E+002
 11
7.071067E+001
 21
7.071067E+001
 31
1.732051E+002
 12
5.000000E+001
 22
8.660254E+001
 32
1.732051E+002
 13
5.000000E+001
 23
8.660254E+001
 33
1.732051E+002
  0
3DFACE
  8
Layer
 10
1.000000E+002
 20
1.000000E+002
 30
1.414213E+002
 11
5.000000E+001
 21
8.660254E+001
 31
1.732051E+002
 12
7.071067E+001
 22
1.224745E+002
 32
1.414213E+002
 13
7.071067E+001
 23
1.224745E+002
 33
1.414213E+002
  0
3DFACE
  8
Layer
 10
7.071067E+001
 20
1.224745E+002
 30
1.414213E+002
 11
5.000000E+001
 21
8.660254E+001
 31
1.732051E+002
 12
2.588190E+001
 22
9.659258E+001
 32
1.732051E+002
 13
2.588190E+001
 23
9.659258E+001
 33
1.732051E+002
  0
3DFACE
  8
Layer
 10
7.071067E+001
 20
1.224745E+002
 30
1.414213E+002
 11
2.588190E+001
 21
9.659258E+001
 31
1.732051E+002
 12
3.660254E+001
 22
1.366026E+002
 32
1.414213E+002
 13
3.660254E+001
 23
1.366026E+002
 33
1.414213E+002
  0
3DFACE
  8
Layer
 10
3.660254E+001
 20
1.366026E+002
 30
1.414213E+002
 11
2.588190E+001
 21
9.659258E+001
 31
1.732051E+002
 12
0.000000E+000
 22
1.000000E+002
 32
1.732051E+002
 13
0.000000E+000
 23
1.000000E+002
 33
1.732051E+002
  0
3DFACE
  8
Layer
 10
3.660254E+001
 20
1.366026E+002
 30
1.414213E+002
 11
0.000000E+000
 21
1.000000E+002
 31
1.732051E+002
 12
0.000000E+000
 22
1.414213E+002
 32
1.414213E+002
 13
0.000000E+000
 23
1.414213E+002
 33
1.414213E+002
  0
3DFACE
  8
Layer
 10
0.000000E+000
 20
1.414213E+002
 30
1.414213E+002
 11
0.000000E+000
 21
1.000000E+002
 31
1.732051E+002
 12
-2.588190E+001
 22
9.659258E+001
 32
1.732051E+002
 13
-2.588190E+001
 23
9.659258E+001
 33
1.732051E+002
  0
3DFACE
  8
Layer
 10
0.000000E+000
 20
1.414213E+002
 30
1.414213E+002
 11
-2.588190E+001
 21
9.659258E+001
 31
1.732051E+002
 12
-3.660254E+001
 22
1.366026E+002
 32
1.414213E+002
 13
-3.660254E+001
 23
1.366026E+002
 33
1.414213E+002
  0
3DFACE
  8
Layer
 10
-3.660254E+001
 20
1.366026E+002
 30
1.414213E+002
 11
-2.588190E+001
 21
9.659258E+001
 31
1.732051E+002
 12
-5.000000E+001
 22
8.660254E+001
 32
1.732051E+002
 13
-5.000000E+001
 23
8.660254E+001
 33
1.732051E+002
  0
3DFACE
  8
Layer
 10
-3.660254E+001
 20
1.366026E+002
 30
1.414213E+002
 11
-5.000000E+001
 21
8.660254E+001
 31
1.732051E+002
 12
-7.071067E+001
 22
1.224745E+002
 32
1.414213E+002
 13
-7.071067E+001
 23
1.224745E+002
 33
1.414213E+002
  0
3DFACE
  8
Layer
 10
-7.071067E+001
 20
1.224745E+002
 30
1.414213E+002
 11
-5.000000E+001
 21
8.660254E+001
 31
1.732051E+002
 12
-7.071067E+001
 22
7.071067E+001
 32
1.732051E+002
 13
-7.071067E+001
 23
7.071067E+001
 33
1.732051E+002
  0
3DFACE
  8
Layer
 10
-7.071067E+001
 20
1.224745E+002
 30
1.414213E+002
 11
-7.071067E+001
 21
7.071067E+001
 31
1.732051E+002
 12
-1.000000E+002
 22
1.000000E+002
 32
1.414213E+002
 13
-1.000000E+002
 23
1.000000E+002
 33
1.414213E+002
  0
3DFACE
  8
Layer
 10
-1.000000E+002
 20
1.000000E+002
 30
1.414213E+002
 11
-7.071067E+001
 21
7.071067E+001
 31
1.732051E+002
 12
-8.660254E+001
 22
5.000000E+001
 32
1.732051E+002
 13
-8.660254E+001
 23
5.000000E+001
 33
1.732051E+002
  0
3DFACE
  8
Layer
 10
-1.000000E+002
 20
1.000000E+002
 30
1.414213E+002
 11
-8.660254E+001
 21
5.000000E+001
 31
1.732051E+002
 12
-1.224745E+002
 22
7.071067E+001
 32
1.414213E+002
 13
-1.224745E+002
 23
7.071067E+001
 33
1.414213E+002
  0
3DFACE
  8
Layer
 10
-1.224745E+002
 20
7.071067E+001
 30
1.414213E+002
 11
-8.660254E+001
 21
5.000000E+001
 31
1.732051E+002
 12
-9.659258E+001
 22
2.588190E+001
 32
1.732051E+002
 13
-9.659258E+001
 23
2.588190E+001
 33
1.732051E+002
  0
3DFACE
  8
Layer
 10
-1.224745E+002
 20
7.071067E+001
 30
1.414213E+002
 11
-9.659258E+001
 21
2.588190E+001
 31
1.732051E+002
 12
-1.366026E+002
 22
3.660254E+001
 32
1.414213E+002
 13
-1.366026E+002
 23
3.660254E+001
 33
1.414213E+002
  0
3DFACE
  8
Layer
 10
-1.366026E+002
 20
3.660254E+001
 30
1.414213E+002
 11
-9.659258E+001
 21
2.588190E+001
 31
1.732051E+002
 12
-1.000000E+002
 22
0.000000E+000
 32
1.732051E+002
 13
-1.000000E+002
 23
0.000000E+000
 33
1.732051E+002
  0
3DFACE
  8
Layer
 10
-1.366026E+002
 20
3.660254E+001
 30
1.414213E+002
 11
-1.000000E+002
 21
0.000000E+000
 31
1.732051E+002
 12
-1.414213E+002
 22
0.000000E+000
 32
1.414213E+002
 13
-1.414213E+002
 23
0.000000E+000
 33
1.414213E+002
  0
3DFACE
  8
Layer
 10
-1.414213E+002
 20
0.000000E+000
 30
1.414213E+002
 11
-1.000000E+002
 21
0.000000E+000
 31
1.732051E+002
 12
-9.659258E+001
 22
-2.588190E+001
 32
1.732051E+002
 13
-9.659258E+001
 23
-2.588190E+001
 33
1.732051E+002
  0
3DFACE
  8
Layer
 10
-1.414213E+002
 20
0.000000E+000
 30
1.414213E+002
 11
-9.659258E+001
 21
-2.588190E+001
 31
1.732051E+002
 12
-1.366026E+002
 22
-3.660254E+001
 32
1.414213E+002
 13
-1.366026E+002
 23
-3.660254E+001
 33
1.414213E+002
  0
3DFACE
  8
Layer
 10
-1.366026E+002
 20
-3.660254E+001
 30
1.414213E+002
 11
-9.659258E+001
 21
-2.588190E+001
 31
1.732051E+002
 12
-8.660254E+001
 22
-5.000000E+001
 32
1.732051E+002
 13
-8.660254E+001
 23
-5.000000E+001
 33
1.732051E+002
  0
3DFACE
  8
Layer
 10
-1.366026E+002
 20
-3.660254E+001
 30
1.414213E+002
 11
-8.660254E+001
 21
-5.000000E+001
 31
1.732051E+002
 12
-1.224745E+002
 22
-7.071067E+001
 32
1.414213E+002
 13
-1.224745E+002
 23
-7.071067E+001
 33
1.414213E+002
  0
3DFACE
  8
Layer
 10
-1.224745E+002
 20
-7.071067E+001
 30
1.414213E+002
 11
-8.660254E+001
 21
-5.000000E+001
 31
1.732051E+002
 12
-7.071067E+001
 22
-7.071067E+001
 32
1.732051E+002
 13
-7.071067E+001
 23
-7.071067E+001
 33
1.732051E+002
  0
3DFACE
  8
Layer
 10
-1.224745E+002
 20
-7.071067E+001
 30
1.414213E+002
 11
-7.071067E+001
 21
-7.071067E+001
 31
1.732051E+002
 12
-1.000000E+002
 22
-1.000000E+002
 32
1.414213E+002
 13
-1.000000E+002
 23
-1.000000E+002
 33
1.414213E+002
  0
3DFACE
  8
Layer
 10
-1.000000E+002
 20
-1.000000E+002
 30
1.414213E+002
 11
-7.071067E+001
 21
-7.071067E+001
 31
1.732051E+002
 12
-5.000000E+001
 22
-8.660254E+001
 32
1.732051E+002
 13
-5.000000E+001
 23
-8.660254E+001
 33
1.732051E+002
  0
3DFACE
  8
Layer
 10
-1.000000E+002
 20
-1.000000E+002
 30
1.414213E+002
 11
-5.000000E+001
 21
-8.660254E+001
 31
1.732051E+002
 12
-7.071067E+001
 22
-1.224745E+002
 32
1.414213E+002
 13
-7.071067E+001
 23
-1.224745E+002
 33
1.414213E+002
  0
3DFACE
  8
Layer
 10
-7.071067E+001
 20
-1.224745E+002
 30
1.414213E+002
 11
-5.000000E+001
 21
-8.660254E+001
 31
1.732051E+002
 12
-2.588190E+001
 22
-9.659258E+001
 32
1.732051E+002
 13
-2.588190E+001
 23
-9.659258E+001
 33
1.732051E+002
  0
3DFACE
  8
Layer
 10
-7.071067E+001
 20
-1.224745E+002
 30
1.414213E+002
 11
-2.588190E+001
 21
-9.659258E+001
 31
1.732051E+002
 12
-3.660254E+001
 22
-1.366026E+002
 32
1.414213E+002
 13
-3.660254E+001
 23
-1.366026E+002
 33
1.414213E+002
  0
3DFACE
  8
Layer
 10
-3.660254E+001
 20
-1.366026E+002
 30
1.414213E+002
 11
-2.588190E+001
 21
-9.659258E+001
 31
1.732051E+002
 12
0.000000E+000
 22
-1.000000E+002
 32
1.732051E+002
 13
0.000000E+000
 23
-1.000000E+002
 33
1.732051E+002
  0
3DFACE
  8
Layer
 10
-3.660254E+001
 20
-1.366026E+002
 30
1.414213E+002
 11
0.000000E+000
 21
-1.000000E+002
 31
1.732051E+002
 12
0.000000E+000
 22
-1.414213E+002
 32
1.414213E+002
 13
0.000000E+000
 23
-1.414213E+002
 33
1.414213E+002
  0
3DFACE
  8
Layer
 10
0.000000E+000
 20
-1.414213E+002
 30
1.414213E+002
 11
0.000000E+000
 21
-1.000000E+002
 31
1.732051E+002
 12
2.588190E+001
 22
-9.659258E+001
 32
1.732051E+002
 13
2.588190E+001
 23
-9.659258E+001
 33
1.732051E+002
  0
3DFACE
  8
Layer
 10
0.000000E+000
 20
-1.414213E+002
 30
1.414213E+002
 11
2.588190E+001
 21
-9.659258E+001
 31
1.732051E+002
 12
3.660254E+001
 22
-1.366026E+002
 32
1.414213E+002
 13
3.660254E+001
 23
-1.366026E+002
 33
1.414213E+002
  0
3DFACE
  8
Layer
 10
3.660254E+001
 20
-1.366026E+002
 30
1.414213E+002
 11
2.588190E+001
 21
-9.659258E+001
 31
1.732051E+002
 12
5.000000E+001
 22
-8.660254E+001
 32
1.732051E+002
 13
5.000000E+001
 23
-8.660254E+001
 33
1.732051E+002
  0
3DFACE
  8
Layer
 10
3.660254E+001
 20
-1.366026E+002
 30
1.414213E+002
 11
5.000000E+001
 21
-8.660254E+001
 31
1.732051E+002
 12
7.071067E+001
 22
-1.224745E+002
 32
1.414213E+002
 13
7.071067E+001
 23
-1.224745E+002
 33
1.414213E+002
  0
3DFACE
  8
Layer
 10
7.071067E+001
 20
-1.224745E+002
 30
1.414213E+002
 11
5.000000E+001
 21
-8.660254E+001
 31
1.732051E+002
 12
7.071067E+001
 22
-7.071067E+001
 32
1.732051E+002
 13
7.071067E+001
 23
-7.071067E+001
 33
1.732051E+002
  0
3DFACE
  8
Layer
 10
7.071067E+001
 20
-1.224745E+002
 30
1.414213E+002
 11
7.071067E+001
 21
-7.071067E+001
 31
1.732051E+002
 12
1.000000E+002
 22
-1.000000E+002
 32
1.414213E+002
 13
1.000000E+002
 23
-1.000000E+002
 33
1.414213E+002
  0
3DFACE
  8
Layer
 10
1.000000E+002
 20
-1.000000E+002
 30
1.414213E+002
 11
7.071067E+001
 21
-7.071067E+001
 31
1.732051E+002
 12
8.660254E+001
 22
-5.000000E+001
 32
1.732051E+002
 13
8.660254E+001
 23
-5.000000E+001
 33
1.732051E+002
  0
3DFACE
  8
Layer
 10
1.000000E+002
 20
-1.000000E+002
 30
1.414213E+002
 11
8.660254E+001
 21
-5.000000E+001
 31
1.732051E+002
 12
1.224745E+002
 22
-7.071067E+001
 32
1.414213E+002
 13
1.224745E+002
 23
-7.071067E+001
 33
1.414213E+002
  0
3DFACE
  8
Layer
 10
1.224745E+002
 20
-7.071067E+001
 30
1.414213E+002
 11
8.660254E+001
 21
-5.000000E+001
 31
1.732051E+002
 12
9.659258E+001
 22
-2.588190E+001
 32
1.732051E+002
 13
9.659258E+001
 23
-2.588190E+001
 33
1.732051E+002
  0
3DFACE
  8
Layer
 10
1.224745E+002
 20
-7.071067E+001
 30
1.414213E+002
 11
9.659258E+001
 21
-2.588190E+001
 31
1.732051E+002
 12
1.366026E+002
 22
-3.660254E+001
 32
1.414213E+002
 13
1.366026E+002
 23
-3.660254E+001
 33
1.414213E+002
  0
3DFACE
  8
Layer
 10
1.366026E+002
 20
-3.660254E+001
 30
1.414213E+002
 11
9.659258E+001
 21
-2.588190E+001
 31
1.732051E+002
 12
1.000000E+002
 22
0.000000E+000
 32
1.732051E+002
 13
1.000000E+002
 23
0.000000E+000
 33
1.732051E+002
  0
3DFACE
  8
Layer
 10
1.366026E+002
 20
-3.660254E+001
 30
1.414213E+002
 11
1.000000E+002
 21
0.000000E+000
 31
1.732051E+002
 12
1.414213E+002
 22
0.000000E+000
 32
1.414213E+002
 13
1.414213E+002
 23
0.000000E+000
 33
1.414213E+002
  0
3DFACE
  8
Layer
 10
1.732051E+002
 20
0.000000E+000
 30
1.000000E+002
 11
1.414213E+002
 21
0.000000E+000
 31
1.414213E+002
 12
1.366026E+002
 22
3.660254E+001
 32
1.414213E+002
 13
1.366026E+002
 23
3.660254E+001
 33
1.414213E+002
  0
3DFACE
  8
Layer
 10
1.732051E+002
 20
0.000000E+000
 30
1.000000E+002
 11
1.366026E+002
 21
3.660254E+001
 31
1.414213E+002
 12
1.673033E+002
 22
4.482877E+001
 32
1.000000E+002
 13
1.673033E+002
 23
4.482877E+001
 33
1.000000E+002
  0
3DFACE
  8
Layer
 10
1.673033E+002
 20
4.482877E+001
 30
1.000000E+002
 11
1.366026E+002
 21
3.660254E+001
 31
1.414213E+002
 12
1.224745E+002
 22
7.071067E+001
 32
1.414213E+002
 13
1.224745E+002
 23
7.071067E+001
 33
1.414213E+002
  0
3DFACE
  8
Layer
 10
1.673033E+002
 20
4.482877E+001
 30
1.000000E+002
 11
1.224745E+002
 21
7.071067E+001
 31
1.414213E+002
 12
1.500000E+002
 22
8.660254E+001
 32
1.000000E+002
 13
1.500000E+002
 23
8.660254E+001
 33
1.000000E+002
  0
3DFACE
  8
Layer
 10
1.500000E+002
 20
8.660254E+001
 30
1.000000E+002
 11
1.224745E+002
 21
7.071067E+001
 31
1.414213E+002
 12
1.000000E+002
 22
1.000000E+002
 32
1.414213E+002
 13
1.000000E+002
 23
1.000000E+002
 33
1.414213E+002
  0
3DFACE
  8
Layer
 10
1.500000E+002
 20
8.660254E+001
 30
1.000000E+002
 11
1.000000E+002
 21
1.000000E+002
 31
1.414213E+002
 12
1.224745E+002
 22
1.224745E+002
 32
1.000000E+002
 13
1.224745E+002
 23
1.224745E+002
 33
1.000000E+002
  0
3DFACE
  8
Layer
 10
1.224745E+002
 20
1.224745E+002
 30
1.000000E+002
 11
1.000000E+002
 21
1.000000E+002
 31
1.414213E+002
 12
7.071067E+001
 22
1.224745E+002
 32
1.414213E+002
 13
7.071067E+001
 23
1.224745E+002
 33
1.414213E+002
  0
3DFACE
  8
Layer
 10
1.224745E+002
 20
1.224745E+002
 30
1.000000E+002
 11
7.071067E+001
 21
1.224745E+002
 31
1.414213E+002
 12
8.660254E+001
 22
1.500000E+002
 32
1.000000E+002
 13
8.660254E+001
 23
1.500000E+002
 33
1.000000E+002
  0
3DFACE
  8
Layer
 10
8.660254E+001
 20
1.500000E+002
 30
1.000000E+002
 11
7.071067E+001
 21
1.224745E+002
 31
1.414213E+002
 12
3.660254E+001
 22
1.366026E+002
 32
1.414213E+002
 13
3.660254E+001
 23
1.366026E+002
 33
1.414213E+002
  0
3DFACE
  8
Layer
 10
8.660254E+001
 20
1.500000E+002
 30
1.000000E+002
 11
3.660254E+001
 21
1.366026E+002
 31
1.414213E+002
 12
4.482877E+001
 22
1.673033E+002
 32
1.000000E+002
 13
4.482877E+001
 23
1.673033E+002
 33
1.000000E+002
  0
3DFACE
  8
Layer
 10
4.482877E+001
 20
1.673033E+002
 30
1.000000E+002
 11
3.660254E+001
 21
1.366026E+002
 31
1.414213E+002
 12
0.000000E+000
 22
1.414213E+002
 32
1.414213E+002
 13
0.000000E+000
 23
1.414213E+002
 33
1.414213E+002
  0
3DFACE
  8
Layer
 10
4.482877E+001
 20
1.673033E+002
 30
1.000000E+002
 11
0.000000E+000
 21
1.414213E+002
 31
1.414213E+002
 12
0.000000E+000
 22
1.732051E+002
 32
1.000000E+002
 13
0.000000E+000
 23
1.732051E+002
 33
1.000000E+002
  0
3DFACE
  8
Layer
 10
0.000000E+000
 20
1.732051E+002
 30
1.000000E+002
 11
0.000000E+000
 21
1.414213E+002
 31
1.414213E+002
 12
-3.660254E+001
 22
1.366026E+002
 32
1.414213E+002
 13
-3.660254E+001
 23
1.366026E+002
 33
1.414213E+002
  0
3DFACE
  8
Layer
 10
0.000000E+000
 20
1.732051E+002
 30
1.000000E+002
 11
-3.660254E+001
 21
1.366026E+002
 31
1.414213E+002
 12
-4.482877E+001
 22
1.673033E+002
 32
1.000000E+002
 13
-4.482877E+001
 23
1.673033E+002
 33
1.000000E+002
  0
3DFACE
  8
Layer
 10
-4.482877E+001
 20
1.673033E+002
 30
1.000000E+002
 11
-3.660254E+001
 21
1.366026E+002
 31
1.414213E+002
 12
-7.071067E+001
 22
1.224745E+002
 32
1.414213E+002
 13
-7.071067E+001
 23
1.224745E+002
 33
1.414213E+002
  0
3DFACE
  8
Layer
 10
-4.482877E+001
 20
1.673033E+002
 30
1.000000E+002
 11
-7.071067E+001
 21
1.224745E+002
 31
1.414213E+002
 12
-8.660254E+001
 22
1.500000E+002
 32
1.000000E+002
 13
-8.660254E+001
 23
1.500000E+002
 33
1.000000E+002
  0
3DFACE
  8
Layer
 10
-8.660254E+001
 20
1.500000E+002
 30
1.000000E+002
 11
-7.071067E+001
 21
1.224745E+002
 31
1.414213E+002
 12
-1.000000E+002
 22
1.000000E+002
 32
1.414213E+002
 13
-1.000000E+002
 23
1.000000E+002
 33
1.414213E+002
  0
3DFACE
  8
Layer
 10
-8.660254E+001
 20
1.500000E+002
 30
1.000000E+002
 11
-1.000000E+002
 21
1.000000E+002
 31
1.414213E+002
 12
-1.224745E+002
 22
1.224745E+002
 32
1.000000E+002
 13
-1.224745E+002
 23
1.224745E+002
 33
1.000000E+002
  0
3DFACE
  8
Layer
 10
-1.224745E+002
 20
1.224745E+002
 30
1.000000E+002
 11
-1.000000E+002
 21
1.000000E+002
 31
1.414213E+002
 12
-1.224745E+002
 22
7.071067E+001
 32
1.414213E+002
 13
-1.224745E+002
 23
7.071067E+001
 33
1.414213E+002
  0
3DFACE
  8
Layer
 10
-1.224745E+002
 20
1.224745E+002
 30
1.000000E+002
 11
-1.224745E+002
 21
7.071067E+001
 31
1.414213E+002
 12
-1.500000E+002
 22
8.660254E+001
 32
1.000000E+002
 13
-1.500000E+002
 23
8.660254E+001
 33
1.000000E+002
  0
3DFACE
  8
Layer
 10
-1.500000E+002
 20
8.660254E+001
 30
1.000000E+002
 11
-1.224745E+002
 21
7.071067E+001
 31
1.414213E+002
 12
-1.366026E+002
 22
3.660254E+001
 32
1.414213E+002
 13
-1.366026E+002
 23
3.660254E+001
 33
1.414213E+002
  0
3DFACE
  8
Layer
 10
-1.500000E+002
 20
8.660254E+001
 30
1.000000E+002
 11
-1.366026E+002
 21
3.660254E+001
 31
1.414213E+002
 12
-1.673033E+002
 22
4.482877E+001
 32
1.000000E+002
 13
-1.673033E+002
 23
4.482877E+001
 33
1.000000E+002
  0
3DFACE
  8
Layer
 10
-1.673033E+002
 20
4.482877E+001
 30
1.000000E+002
 11
-1.366026E+002
 21
3.660254E+001
 31
1.414213E+002
 12
-1.414213E+002
 22
0.000000E+000
 32
1.414213E+002
 13
-1.414213E+002
 23
0.000000E+000
 33
1.414213E+002
  0
3DFACE
  8
Layer
 10
-1.673033E+002
 20
4.482877E+001
 30
1.000000E+002
 11
-1.414213E+002
 21
0.000000E+000
 31
1.414213E+002
 12
-1.732051E+002
 22
0.000000E+000
 32
1.000000E+002
 13
-1.732051E+002
 23
0.000000E+000
 33
1.000000E+002
  0
3DFACE
  8
Layer
 10
-1.732051E+002
 20
0.000000E+000
 30
1.000000E+002
 11
-1.414213E+002
 21
0.000000E+000
 31
1.414213E+002
 12
-1.366026E+002
 22
-3.660254E+001
 32
1.414213E+002
 13
-1.366026E+002
 23
-3.660254E+001
 33
1.414213E+002
  0
3DFACE
  8
Layer
 10
-1.732051E+002
 20
0.000000E+000
 30
1.000000E+002
 11
-1.366026E+002
 21
-3.660254E+001
 31
1.414213E+002
 12
-1.673033E+002
 22
-4.482877E+001
 32
1.000000E+002
 13
-1.673033E+002
 23
-4.482877E+001
 33
1.000000E+002
  0
3DFACE
  8
Layer
 10
-1.673033E+002
 20
-4.482877E+001
 30
1.000000E+002
 11
-1.366026E+002
 21
-3.660254E+001
 31
1.414213E+002
 12
-1.224745E+002
 22
-7.071067E+001
 32
1.414213E+002
 13
-1.224745E+002
 23
-7.071067E+001
 33
1.414213E+002
  0
3DFACE
  8
Layer
 10
-1.673033E+002
 20
-4.482877E+001
 30
1.000000E+002
 11
-1.224745E+002
 21
-7.071067E+001
 31
1.414213E+002
 12
-1.500000E+002
 22
-8.660254E+001
 32
1.000000E+002
 13
-1.500000E+002
 23
-8.660254E+001
 33
1.000000E+002
  0
3DFACE
  8
Layer
 10
-1.500000E+002
 20
-8.660254E+001
 30
1.000000E+002
 11
-1.224745E+002
 21
-7.071067E+001
 31
1.414213E+002
 12
-1.000000E+002
 22
-1.000000E+002
 32
1.414213E+002
 13
-1.000000E+002
 23
-1.000000E+002
 33
1.414213E+002
  0
3DFACE
  8
Layer
 10
-1.500000E+002
 20
-8.660254E+001
 30
1.000000E+002
 11
-1.000000E+002
 21
-1.000000E+002
 31
1.414213E+002
 12
-1.224745E+002
 22
-1.224745E+002
 32
1.000000E+002
 13
-1.224745E+002
 23
-1.224745E+002
 33
1.000000E+002
  0
3DFACE
  8
Layer
 10
-1.224745E+002
 20
-1.224745E+002
 30
1.000000E+002
 11
-1.000000E+002
 21
-1.000000E+002
 31
1.414213E+002
 12
-7.071067E+001
 22
-1.224745E+002
 32
1.414213E+002
 13
-7.071067E+001
 23
-1.224745E+002
 33
1.414213E+002
  0
3DFACE
  8
Layer
 10
-1.224745E+002
 20
-1.224745E+002
 30
1.000000E+002
 11
-7.071067E+001
 21
-1.224745E+002
 31
1.414213E+002
 12
-8.660254E+001
 22
-1.500000E+002
 32
1.000000E+002
 13
-8.660254E+001
 23
-1.500000E+002
 33
1.000000E+002
  0
3DFACE
  8
Layer
 10
-8.660254E+001
 20
-1.500000E+002
 30
1.000000E+002
 11
-7.071067E+001
 21
-1.224745E+002
 31
1.414213E+002
 12
-3.660254E+001
 22
-1.366026E+002
 32
1.414213E+002
 13
-3.660254E+001
 23
-1.366026E+002
 33
1.414213E+002
  0
3DFACE
  8
Layer
 10
-8.660254E+001
 20
-1.500000E+002
 30
1.000000E+002
 11
-3.660254E+001
 21
-1.366026E+002
 31
1.414213E+002
 12
-4.482877E+001
 22
-1.673033E+002
 32
1.000000E+002
 13
-4.482877E+001
 23
-1.673033E+002
 33
1.000000E+002
  0
3DFACE
  8
Layer
 10
-4.482877E+001
 20
-1.673033E+002
 30
1.000000E+002
 11
-3.660254E+001
 21
-1.366026E+002
 31
1.414213E+002
 12
0.000000E+000
 22
-1.414213E+002
 32
1.414213E+002
 13
0.000000E+000
 23
-1.414213E+002
 33
1.414213E+002
  0
3DFACE
  8
Layer
 10
-4.482877E+001
 20
-1.673033E+002
 30
1.000000E+002
 11
0.000000E+000
 21
-1.414213E+002
 31
1.414213E+002
 12
0.000000E+000
 22
-1.732051E+002
 32
1.000000E+002
 13
0.000000E+000
 23
-1.732051E+002
 33
1.000000E+002
  0
3DFACE
  8
Layer
 10
0.000000E+000
 20
-1.732051E+002
 30
1.000000E+002
 11
0.000000E+000
 21
-1.414213E+002
 31
1.414213E+002
 12
3.660254E+001
 22
-1.366026E+002
 32
1.414213E+002
 13
3.660254E+001
 23
-1.366026E+002
 33
1.414213E+002
  0
3DFACE
  8
Layer
 10
0.000000E+000
 20
-1.732051E+002
 30
1.000000E+002
 11
3.660254E+001
 21
-1.366026E+002
 31
1.414213E+002
 12
4.482877E+001
 22
-1.673033E+002
 32
1.000000E+002
 13
4.482877E+001
 23
-1.673033E+002
 33
1.000000E+002
  0
3DFACE
  8
Layer
 10
4.482877E+001
 20
-1.673033E+002
 30
1.000000E+002
 11
3.660254E+001
 21
-1.366026E+002
 31
1.414213E+002
 12
7.071067E+001
 22
-1.224745E+002
 32
1.414213E+002
 13
7.071067E+001
 23
-1.224745E+002
 33
1.414213E+002
  0
3DFACE
  8
Layer
 10
4.482877E+001
 20
-1.673033E+002
 30
1.000000E+002
 11
7.071067E+001
 21
-1.224745E+002
 31
1.414213E+002
 12
8.660254E+001
 22
-1.500000E+002
 32
1.000000E+002
 13
8.660254E+001
 23
-1.500000E+002
 33
1.000000E+002
  0
3DFACE
  8
Layer
 10
8.660254E+001
 20
-1.500000E+002
 30
1.000000E+002
 11
7.071067E+001
 21
-1.224745E+002
 31
1.414213E+002
 12
1.000000E+002
 22
-1.000000E+002
 32
1.414213E+002
 13
1.000000E+002
 23
-1.000000E+002
 33
1.414213E+002
  0
3DFACE
  8
Layer
 10
8.660254E+001
 20
-1.500000E+002
 30
1.000000E+002
 11
1.000000E+002
 21
-1.000000E+002
 31
1.414213E+002
 12
1.224745E+002
 22
-1.224745E+002
 32
1.000000E+002
 13
1.224745E+002
 23
-1.224745E+002
 33
1.000000E+002
  0
3DFACE
  8
Layer
 10
1.224745E+002
 20
-1.224745E+002
 30
1.000000E+002
 11
1.000000E+002
 21
-1.000000E+002
 31
1.414213E+002
 12
1.224745E+002
 22
-7.071067E+001
 32
1.414213E+002
 13
1.224745E+002
 23
-7.071067E+001
 33
1.414213E+002
  0
3DFACE
  8
Layer
 10
1.224745E+002
 20
-1.224745E+002
 30
1.000000E+002
 11
1.224745E+002
 21
-7.071067E+001
 31
1.414213E+002
 12
1.500000E+002
 22
-8.660254E+001
 32
1.000000E+002
 13
1.500000E+002
 23
-8.660254E+001
 33
1.000000E+002
  0
3DFACE
  8
Layer
 10
1.500000E+002
 20
-8.660254E+001
 30
1.000000E+002
 11
1.224745E+002
 21
-7.071067E+001
 31
1.414213E+002
 12
1.366026E+002
 22
-3.660254E+001
 32
1.414213E+002
 13
1.366026E+002
 23
-3.660254E+001
 33
1.414213E+002
  0
3DFACE
  8
Layer
 10
1.500000E+002
 20
-8.660254E+001
 30
1.000000E+002
 11
1.366026E+002
 21
-3.660254E+001
 31
1.414213E+002
 12
1.673033E+002
 22
-4.482877E+001
 32
1.000000E+002
 13
1.673033E+002
 23
-4.482877E+001
 33
1.000000E+002
  0
3DFACE
  8
Layer
 10
1.673033E+002
 20
-4.482877E+001
 30
1.000000E+002
 11
1.366026E+002
 21
-3.660254E+001
 31
1.414213E+002
 12
1.414213E+002
 22
0.000000E+000
 32
1.414213E+002
 13
1.414213E+002
 23
0.000000E+000
 33
1.414213E+002
  0
3DFACE
  8
Layer
 10
1.673033E+002
 20
-4.482877E+001
 30
1.000000E+002
 11
1.414213E+002
 21
0.000000E+000
 31
1.414213E+002
 12
1.732051E+002
 22
0.000000E+000
 32
1.000000E+002
 13
1.732051E+002
 23
0.000000E+000
 33
1.000000E+002
  0
3DFACE
  8
Layer
 10
1.931852E+002
 20
0.000000E+000
 30
5.176381E+001
 11
1.732051E+002
 21
0.000000E+000
 31
1.000000E+002
 12
1.673033E+002
 22
4.482877E+001
 32
1.000000E+002
 13
1.673033E+002
 23
4.482877E+001
 33
1.000000E+002
  0
3DFACE
  8
Layer
 10
1.931852E+002
 20
0.000000E+000
 30
5.176381E+001
 11
1.673033E+002
 21
4.482877E+001
 31
1.000000E+002
 12
1.866026E+002
 22
5.000000E+001
 32
5.176381E+001
 13
1.866026E+002
 23
5.000000E+001
 33
5.176381E+001
  0
3DFACE
  8
Layer
 10
1.866026E+002
 20
5.000000E+001
 30
5.176381E+001
 11
1.673033E+002
 21
4.482877E+001
 31
1.000000E+002
 12
1.500000E+002
 22
8.660254E+001
 32
1.000000E+002
 13
1.500000E+002
 23
8.660254E+001
 33
1.000000E+002
  0
3DFACE
  8
Layer
 10
1.866026E+002
 20
5.000000E+001
 30
5.176381E+001
 11
1.500000E+002
 21
8.660254E+001
 31
1.000000E+002
 12
1.673033E+002
 22
9.659258E+001
 32
5.176381E+001
 13
1.673033E+002
 23
9.659258E+001
 33
5.176381E+001
  0
3DFACE
  8
Layer
 10
1.673033E+002
 20
9.659258E+001
 30
5.176381E+001
 11
1.500000E+002
 21
8.660254E+001
 31
1.000000E+002
 12
1.224745E+002
 22
1.224745E+002
 32
1.000000E+002
 13
1.224745E+002
 23
1.224745E+002
 33
1.000000E+002
  0
3DFACE
  8
Layer
 10
1.673033E+002
 20
9.659258E+001
 30
5.176381E+001
 11
1.224745E+002
 21
1.224745E+002
 31
1.000000E+002
 12
1.366026E+002
 22
1.366026E+002
 32
5.176381E+001
 13
1.366026E+002
 23
1.366026E+002
 33
5.176381E+001
  0
3DFACE
  8
Layer
 10
1.366026E+002
 20
1.366026E+002
 30
5.176381E+001
 11
1.224745E+002
 21
1.224745E+002
 31
1.000000E+002
 12
8.660254E+001
 22
1.500000E+002
 32
1.000000E+002
 13
8.660254E+001
 23
1.500000E+002
 33
1.000000E+002
  0
3DFACE
  8
Layer
 10
1.366026E+002
 20
1.366026E+002
 30
5.176381E+001
 11
8.660254E+001
 21
1.500000E+002
 31
1.000000E+002
 12
9.659258E+001
 22
1.673033E+002
 32
5.176381E+001
 13
9.659258E+001
 23
1.673033E+002
 33
5.176381E+001
  0
3DFACE
  8
Layer
 10
9.659258E+001
 20
1.673033E+002
 30
5.176381E+001
 11
8.660254E+001
 21
1.500000E+002
 31
1.000000E+002
 12
4.482877E+001
 22
1.673033E+002
 32
1.000000E+002
 13
4.482877E+001
 23
1.673033E+002
 33
1.000000E+002
  0
3DFACE
  8
Layer
 10
9.659258E+001
 20
1.673033E+002
 30
5.176381E+001
 11
4.482877E+001
 21
1.673033E+002
 31
1.000000E+002
 12
5.000000E+001
 22
1.866026E+002
 32
5.176381E+001
 13
5.000000E+001
 23
1.866026E+002
 33
5.176381E+001
  0
3DFACE
  8
Layer
 10
5.000000E+001
 20
1.866026E+002
 30
5.176381E+001
 11
4.482877E+001
 21
1.673033E+002
 31
1.000000E+002
 12
0.000000E+000
 22
1.732051E+002
 32
1.000000E+002
 13
0.000000E+000
 23
1.732051E+002
 33
1.000000E+002
  0
3DFACE
  8
Layer
 10
5.000000E+001
 20
1.866026E+002
 30
5.176381E+001
 11
0.000000E+000
 21
1.732051E+002
 31
1.000000E+002
 12
0.000000E+000
 22
1.931852E+002
 32
5.176381E+001
 13
0.000000E+000
 23
1.931852E+002
 33
5.176381E+001
  0
3DFACE
  8
Layer
 10
0.000000E+000
 20
1.931852E+002
 30
5.176381E+001
 11
0.000000E+000
 21
1.732051E+002
 31
1.000000E+002
 12
-4.482877E+001
 22
1.673033E+002
 32
1.000000E+002
 13
-4.482877E+001
 23
1.673033E+002
 33
1.000000E+002
  0
3DFACE
  8
Layer
 10
0.000000E+000
 20
1.931852E+002
 30
5.176381E+001
 11
-4.482877E+001
 21
1.673033E+002
 31
1.000000E+002
 12
-5.000000E+001
 22
1.866026E+002
 32
5.176381E+001
 13
-5.000000E+001
 23
1.866026E+002
 33
5.176381E+001
  0
3DFACE
  8
Layer
 10
-5.000000E+001
 20
1.866026E+002
 30
5.176381E+001
 11
-4.482877E+001
 21
1.673033E+002
 31
1.000000E+002
 12
-8.660254E+001
 22
1.500000E+002
 32
1.000000E+002
 13
-8.660254E+001
 23
1.500000E+002
 33
1.000000E+002
  0
3DFACE
  8
Layer
 10
-5.000000E+001
 20
1.866026E+002
 30
5.176381E+001
 11
-8.660254E+001
 21
1.500000E+002
 31
1.000000E+002
 12
-9.659258E+001
 22
1.673033E+002
 32
5.176381E+001
 13
-9.659258E+001
 23
1.673033E+002
 33
5.176381E+001
  0
3DFACE
  8
Layer
 10
-9.659258E+001
 20
1.673033E+002
 30
5.176381E+001
 11
-8.660254E+001
 21
1.500000E+002
 31
1.000000E+002
 12
-1.224745E+002
 22
1.224745E+002
 32
1.000000E+002
 13
-1.224745E+002
 23
1.224745E+002
 33
1.000000E+002
  0
3DFACE
  8
Layer
 10
-9.659258E+001
 20
1.673033E+002
 30
5.176381E+001
 11
-1.224745E+002
 21
1.224745E+002
 31
1.000000E+002
 12
-1.366026E+002
 22
1.366026E+002
 32
5.176381E+001
 13
-1.366026E+002
 23
1.366026E+002
 33
5.176381E+001
  0
3DFACE
  8
Layer
 10
-1.366026E+002
 20
1.366026E+002
 30
5.176381E+001
 11
-1.224745E+002
 21
1.224745E+002
 31
1.000000E+002
 12
-1.500000E+002
 22
8.660254E+001
 32
1.000000E+002
 13
-1.500000E+002
 23
8.660254E+001
 33
1.000000E+002
  0
3DFACE
  8
Layer
 10
-1.366026E+002
 20
1.366026E+002
 30
5.176381E+001
 11
-1.500000E+002
 21
8.660254E+001
 31
1.000000E+002
 12
-1.673033E+002
 22
9.659258E+001
 32
5.176381E+001
 13
-1.673033E+002
 23
9.659258E+001
 33
5.176381E+001
  0
3DFACE
  8
Layer
 10
-1.673033E+002
 20
9.659258E+001
 30
5.176381E+001
 11
-1.500000E+002
 21
8.660254E+001
 31
1.000000E+002
 12
-1.673033E+002
 22
4.482877E+001
 32
1.000000E+002
 13
-1.673033E+002
 23
4.482877E+001
 33
1.000000E+002
  0
3DFACE
  8
Layer
 10
-1.673033E+002
 20
9.659258E+001
 30
5.176381E+001
 11
-1.673033E+002
 21
4.482877E+001
 31
1.000000E+002
 12
-1.866026E+002
 22
5.000000E+001
 32
5.176381E+001
 13
-1.866026E+002
 23
5.000000E+001
 33
5.176381E+001
  0
3DFACE
  8
Layer
 10
-1.866026E+002
 20
5.000000E+001
 30
5.176381E+001
 11
-1.673033E+002
 21
4.482877E+001
 31
1.000000E+002
 12
-1.732051E+002
 22
0.000000E+000
 32
1.000000E+002
 13
-1.732051E+002
 23
0.000000E+000
 33
1.000000E+002
  0
3DFACE
  8
Layer
 10
-1.866026E+002
 20
5.000000E+001
 30
5.176381E+001
 11
-1.732051E+002
 21
0.000000E+000
 31
1.000000E+002
 12
-1.931852E+002
 22
0.000000E+000
 32
5.176381E+001
 13
-1.931852E+002
 23
0.000000E+000
 33
5.176381E+001
  0
3DFACE
  8
Layer
 10
-1.931852E+002
 20
0.000000E+000
 30
5.176381E+001
 11
-1.732051E+002
 21
0.000000E+000
 31
1.000000E+002
 12
-1.673033E+002
 22
-4.482877E+001
 32
1.000000E+002
 13
-1.673033E+002
 23
-4.482877E+001
 33
1.000000E+002
  0
3DFACE
  8
Layer
 10
-1.931852E+002
 20
0.000000E+000
 30
5.176381E+001
 11
-1.673033E+002
 21
-4.482877E+001
 31
1.000000E+002
 12
-1.866026E+002
 22
-5.000000E+001
 32
5.176381E+001
 13
-1.866026E+002
 23
-5.000000E+001
 33
5.176381E+001
  0
3DFACE
  8
Layer
 10
-1.866026E+002
 20
-5.000000E+001
 30
5.176381E+001
 11
-1.673033E+002
 21
-4.482877E+001
 31
1.000000E+002
 12
-1.500000E+002
 22
-8.660254E+001
 32
1.000000E+002
 13
-1.500000E+002
 23
-8.660254E+001
 33
1.000000E+002
  0
3DFACE
  8
Layer
 10
-1.866026E+002
 20
-5.000000E+001
 30
5.176381E+001
 11
-1.500000E+002
 21
-8.660254E+001
 31
1.000000E+002
 12
-1.673033E+002
 22
-9.659258E+001
 32
5.176381E+001
 13
-1.673033E+002
 23
-9.659258E+001
 33
5.176381E+001
  0
3DFACE
  8
Layer
 10
-1.673033E+002
 20
-9.659258E+001
 30
5.176381E+001
 11
-1.500000E+002
 21
-8.660254E+001
 31
1.000000E+002
 12
-1.224745E+002
 22
-1.224745E+002
 32
1.000000E+002
 13
-1.224745E+002
 23
-1.224745E+002
 33
1.000000E+002
  0
3DFACE
  8
Layer
 10
-1.673033E+002
 20
-9.659258E+001
 30
5.176381E+001
 11
-1.224745E+002
 21
-1.224745E+002
 31
1.000000E+002
 12
-1.366026E+002
 22
-1.366026E+002
 32
5.176381E+001
 13
-1.366026E+002
 23
-1.366026E+002
 33
5.176381E+001
  0
3DFACE
  8
Layer
 10
-1.366026E+002
 20
-1.366026E+002
 30
5.176381E+001
 11
-1.224745E+002
 21
-1.224745E+002
 31
1.000000E+002
 12
-8.660254E+001
 22
-1.500000E+002
 32
1.000000E+002
 13
-8.660254E+001
 23
-1.500000E+002
 33
1.000000E+002
  0
3DFACE
  8
Layer
 10
-1.366026E+002
 20
-1.366026E+002
 30
5.176381E+001
 11
-8.660254E+001
 21
-1.500000E+002
 31
1.000000E+002
 12
-9.659258E+001
 22
-1.673033E+002
 32
5.176381E+001
 13
-9.659258E+001
 23
-1.673033E+002
 33
5.176381E+001
  0
3DFACE
  8
Layer
 10
-9.659258E+001
 20
-1.673033E+002
 30
5.176381E+001
 11
-8.660254E+001
 21
-1.500000E+002
 31
1.000000E+002
 12
-4.482877E+001
 22
-1.673033E+002
 32
1.000000E+002
 13
-4.482877E+001
 23
-1.673033E+002
 33
1.000000E+002
  0
3DFACE
  8
Layer
 10
-9.659258E+001
 20
-1.673033E+002
 30
5.176381E+001
 11
-4.482877E+001
 21
-1.673033E+002
 31
1.000000E+002
 12
-5.000000E+001
 22
-1.866026E+002
 32
5.176381E+001
 13
-5.000000E+001
 23
-1.866026E+002
 33
5.176381E+001
  0
3DFACE
  8
Layer
 10
-5.000000E+001
 20
-1.866026E+002
 30
5.176381E+001
 11
-4.482877E+001
 21
-1.673033E+002
 31
1.000000E+002
 12
0.000000E+000
 22
-1.732051E+002
 32
1.000000E+002
 13
0.000000E+000
 23
-1.732051E+002
 33
1.000000E+002
  0
3DFACE
  8
Layer
 10
-5.000000E+001
 20
-1.866026E+002
 30
5.176381E+001
 11
0.000000E+000
 21
-1.732051E+002
 31
1.000000E+002
 12
0.000000E+000
 22
-1.931852E+002
 32
5.176381E+001
 13
0.000000E+000
 23
-1.931852E+002
 33
5.176381E+001
  0
3DFACE
  8
Layer
 10
0.000000E+000
 20
-1.931852E+002
 30
5.176381E+001
 11
0.000000E+000
 21
-1.732051E+002
 31
1.000000E+002
 12
4.482877E+001
 22
-1.673033E+002
 32
1.000000E+002
 13
4.482877E+001
 23
-1.673033E+002
 33
1.000000E+002
  0
3DFACE
  8
Layer
 10
0.000000E+000
 20
-1.931852E+002
 30
5.176381E+001
 11
4.482877E+001
 21
-1.673033E+002
 31
1.000000E+002
 12
5.000000E+001
 22
-1.866026E+002
 32
5.176381E+001
 13
5.000000E+001
 23
-1.866026E+002
 33
5.176381E+001
  0
3DFACE
  8
Layer
 10
5.000000E+001
 20
-1.866026E+002
 30
5.176381E+001
 11
4.482877E+001
 21
-1.673033E+002
 31
1.000000E+002
 12
8.660254E+001
 22
-1.500000E+002
 32
1.000000E+002
 13
8.660254E+001
 23
-1.500000E+002
 33
1.000000E+002
  0
3DFACE
  8
Layer
 10
5.000000E+001
 20
-1.866026E+002
 30
5.176381E+001
 11
8.660254E+001
 21
-1.500000E+002
 31
1.000000E+002
 12
9.659258E+001
 22
-1.673033E+002
 32
5.176381E+001
 13
9.659258E+001
 23
-1.673033E+002
 33
5.176381E+001
  0
3DFACE
  8
Layer
 10
9.659258E+001
 20
-1.673033E+002
 30
5.176381E+001
 11
8.660254E+001
 21
-1.500000E+002
 31
1.000000E+002
 12
1.224745E+002
 22
-1.224745E+002
 32
1.000000E+002
 13
1.224745E+002
 23
-1.224745E+002
 33
1.000000E+002
  0
3DFACE
  8
Layer
 10
9.659258E+001
 20
-1.673033E+002
 30
5.176381E+001
 11
1.224745E+002
 21
-1.224745E+002
 31
1.000000E+002
 12
1.366026E+002
 22
-1.366026E+002
 32
5.176381E+001
 13
1.366026E+002
 23
-1.366026E+002
 33
5.176381E+001
  0
3DFACE
  8
Layer
 10
1.366026E+002
 20
-1.366026E+002
 30
5.176381E+001
 11
1.224745E+002
 21
-1.224745E+002
 31
1.000000E+002
 12
1.500000E+002
 22
-8.660254E+001
 32
1.000000E+002
 13
1.500000E+002
 23
-8.660254E+001
 33
1.000000E+002
  0
3DFACE
  8
Layer
 10
1.366026E+002
 20
-1.366026E+002
 30
5.176381E+001
 11
1.500000E+002
 21
-8.660254E+001
 31
1.000000E+002
 12
1.673033E+002
 22
-9.659258E+001
 32
5.176381E+001
 13
1.673033E+002
 23
-9.659258E+001
 33
5.176381E+001
  0
3DFACE
  8
Layer
 10
1.673033E+002
 20
-9.659258E+001
 30
5.176381E+001
 11
1.500000E+002
 21
-8.660254E+001
 31
1.000000E+002
 12
1.673033E+002
 22
-4.482877E+001
 32
1.000000E+002
 13
1.673033E+002
 23
-4.482877E+001
 33
1.000000E+002
  0
3DFACE
  8
Layer
 10
1.673033E+002
 20
-9.659258E+001
 30
5.176381E+001
 11
1.673033E+002
 21
-4.482877E+001
 31
1.000000E+002
 12
1.866026E+002
 22
-5.000000E+001
 32
5.176381E+001
 13
1.866026E+002
 23
-5.000000E+001
 33
5.176381E+001
  0
3DFACE
  8
Layer
 10
1.866026E+002
 20
-5.000000E+001
 30
5.176381E+001
 11
1.673033E+002
 21
-4.482877E+001
 31
1.000000E+002
 12
1.732051E+002
 22
0.000000E+000
 32
1.000000E+002
 13
1.732051E+002
 23
0.000000E+000
 33
1.000000E+002
  0
3DFACE
  8
Layer
 10
1.866026E+002
 20
-5.000000E+001
 30
5.176381E+001
 11
1.732051E+002
 21
0.000000E+000
 31
1.000000E+002
 12
1.931852E+002
 22
0.000000E+000
 32
5.176381E+001
 13
1.931852E+002
 23
0.000000E+000
 33
5.176381E+001
  0
3DFACE
  8
Layer
 10
2.000000E+002
 20
0.000000E+000
 30
0.000000E+000
 11
1.931852E+002
 21
0.000000E+000
 31
5.176381E+001
 12
1.866026E+002
 22
5.000000E+001
 32
5.176381E+001
 13
1.866026E+002
 23
5.000000E+001
 33
5.176381E+001
  0
3DFACE
  8
Layer
 10
2.000000E+002
 20
0.000000E+000
 30
0.000000E+000
 11
1.866026E+002
 21
5.000000E+001
 31
5.176381E+001
 12
1.931852E+002
 22
5.176381E+001
 32
0.000000E+000
 13
1.931852E+002
 23
5.176381E+001
 33
0.000000E+000
  0
3DFACE
  8
Layer
 10
1.931852E+002
 20
5.176381E+001
 30
0.000000E+000
 11
1.866026E+002
 21
5.000000E+001
 31
5.176381E+001
 12
1.673033E+002
 22
9.659258E+001
 32
5.176381E+001
 13
1.673033E+002
 23
9.659258E+001
 33
5.176381E+001
  0
3DFACE
  8
Layer
 10
1.931852E+002
 20
5.176381E+001
 30
0.000000E+000
 11
1.673033E+002
 21
9.659258E+001
 31
5.176381E+001
 12
1.732051E+002
 22
1.000000E+002
 32
0.000000E+000
 13
1.732051E+002
 23
1.000000E+002
 33
0.000000E+000
  0
3DFACE
  8
Layer
 10
1.732051E+002
 20
1.000000E+002
 30
0.000000E+000
 11
1.673033E+002
 21
9.659258E+001
 31
5.176381E+001
 12
1.366026E+002
 22
1.366026E+002
 32
5.176381E+001
 13
1.366026E+002
 23
1.366026E+002
 33
5.176381E+001
  0
3DFACE
  8
Layer
 10
1.732051E+002
 20
1.000000E+002
 30
0.000000E+000
 11
1.366026E+002
 21
1.366026E+002
 31
5.176381E+001
 12
1.414213E+002
 22
1.414213E+002
 32
0.000000E+000
 13
1.414213E+002
 23
1.414213E+002
 33
0.000000E+000
  0
3DFACE
  8
Layer
 10
1.414213E+002
 20
1.414213E+002
 30
0.000000E+000
 11
1.366026E+002
 21
1.366026E+002
 31
5.176381E+001
 12
9.659258E+001
 22
1.673033E+002
 32
5.176381E+001
 13
9.659258E+001
 23
1.673033E+002
 33
5.176381E+001
  0
3DFACE
  8
Layer
 10
1.414213E+002
 20
1.414213E+002
 30
0.000000E+000
 11
9.659258E+001
 21
1.673033E+002
 31
5.176381E+001
 12
1.000000E+002
 22
1.732051E+002
 32
0.000000E+000
 13
1.000000E+002
 23
1.732051E+002
 33
0.000000E+000
  0
3DFACE
  8
Layer
 10
1.000000E+002
 20
1.732051E+002
 30
0.000000E+000
 11
9.659258E+001
 21
1.673033E+002
 31
5.176381E+001
 12
5.000000E+001
 22
1.866026E+002
 32
5.176381E+001
 13
5.000000E+001
 23
1.866026E+002
 33
5.176381E+001
  0
3DFACE
  8
Layer
 10
1.000000E+002
 20
1.732051E+002
 30
0.000000E+000
 11
5.000000E+001
 21
1.866026E+002
 31
5.176381E+001
 12
5.176381E+001
 22
1.931852E+002
 32
0.000000E+000
 13
5.176381E+001
 23
1.931852E+002
 33
0.000000E+000
  0
3DFACE
  8
Layer
 10
5.176381E+001
 20
1.931852E+002
 30
0.000000E+000
 11
5.000000E+001
 21
1.866026E+002
 31
5.176381E+001
 12
0.000000E+000
 22
1.931852E+002
 32
5.176381E+001
 13
0.000000E+000
 23
1.931852E+002
 33
5.176381E+001
  0
3DFACE
  8
Layer
 10
5.176381E+001
 20
1.931852E+002
 30
0.000000E+000
 11
0.000000E+000
 21
1.931852E+002
 31
5.176381E+001
 12
0.000000E+000
 22
2.000000E+002
 32
0.000000E+000
 13
0.000000E+000
 23
2.000000E+002
 33
0.000000E+000
  0
3DFACE
  8
Layer
 10
0.000000E+000
 20
2.000000E+002
 30
0.000000E+000
 11
0.000000E+000
 21
1.931852E+002
 31
5.176381E+001
 12
-5.000000E+001
 22
1.866026E+002
 32
5.176381E+001
 13
-5.000000E+001
 23
1.866026E+002
 33
5.176381E+001
  0
3DFACE
  8
Layer
 10
0.000000E+000
 20
2.000000E+002
 30
0.000000E+000
 11
-5.000000E+001
 21
1.866026E+002
 31
5.176381E+001
 12
-5.176381E+001
 22
1.931852E+002
 32
0.000000E+000
 13
-5.176381E+001
 23
1.931852E+002
 33
0.000000E+000
  0
3DFACE
  8
Layer
 10
-5.176381E+001
 20
1.931852E+002
 30
0.000000E+000
 11
-5.000000E+001
 21
1.866026E+002
 31
5.176381E+001
 12
-9.659258E+001
 22
1.673033E+002
 32
5.176381E+001
 13
-9.659258E+001
 23
1.673033E+002
 33
5.176381E+001
  0
3DFACE
  8
Layer
 10
-5.176381E+001
 20
1.931852E+002
 30
0.000000E+000
 11
-9.659258E+001
 21
1.673033E+002
 31
5.176381E+001
 12
-1.000000E+002
 22
1.732051E+002
 32
0.000000E+000
 13
-1.000000E+002
 23
1.732051E+002
 33
0.000000E+000
  0
3DFACE
  8
Layer
 10
-1.000000E+002
 20
1.732051E+002
 30
0.000000E+000
 11
-9.659258E+001
 21
1.673033E+002
 31
5.176381E+001
 12
-1.366026E+002
 22
1.366026E+002
 32
5.176381E+001
 13
-1.366026E+002
 23
1.366026E+002
 33
5.176381E+001
  0
3DFACE
  8
Layer
 10
-1.000000E+002
 20
1.732051E+002
 30
0.000000E+000
 11
-1.366026E+002
 21
1.366026E+002
 31
5.176381E+001
 12
-1.414213E+002
 22
1.414213E+002
 32
0.000000E+000
 13
-1.414213E+002
 23
1.414213E+002
 33
0.000000E+000
  0
3DFACE
  8
Layer
 10
-1.414213E+002
 20
1.414213E+002
 30
0.000000E+000
 11
-1.366026E+002
 21
1.366026E+002
 31
5.176381E+001
 12
-1.673033E+002
 22
9.659258E+001
 32
5.176381E+001
 13
-1.673033E+002
 23
9.659258E+001
 33
5.176381E+001
  0
3DFACE
  8
Layer
 10
-1.414213E+002
 20
1.414213E+002
 30
0.000000E+000
 11
-1.673033E+002
 21
9.659258E+001
 31
5.176381E+001
 12
-1.732051E+002
 22
1.000000E+002
 32
0.000000E+000
 13
-1.732051E+002
 23
1.000000E+002
 33
0.000000E+000
  0
3DFACE
  8
Layer
 10
-1.732051E+002
 20
1.000000E+002
 30
0.000000E+000
 11
-1.673033E+002
 21
9.659258E+001
 31
5.176381E+001
 12
-1.866026E+002
 22
5.000000E+001
 32
5.176381E+001
 13
-1.866026E+002
 23
5.000000E+001
 33
5.176381E+001
  0
3DFACE
  8
Layer
 10
-1.732051E+002
 20
1.000000E+002
 30
0.000000E+000
 11
-1.866026E+002
 21
5.000000E+001
 31
5.176381E+001
 12
-1.931852E+002
 22
5.176381E+001
 32
0.000000E+000
 13
-1.931852E+002
 23
5.176381E+001
 33
0.000000E+000
  0
3DFACE
  8
Layer
 10
-1.931852E+002
 20
5.176381E+001
 30
0.000000E+000
 11
-1.866026E+002
 21
5.000000E+001
 31
5.176381E+001
 12
-1.931852E+002
 22
0.000000E+000
 32
5.176381E+001
 13
-1.931852E+002
 23
0.000000E+000
 33
5.176381E+001
  0
3DFACE
  8
Layer
 10
-1.931852E+002
 20
5.176381E+001
 30
0.000000E+000
 11
-1.931852E+002
 21
0.000000E+000
 31
5.176381E+001
 12
-2.000000E+002
 22
0.000000E+000
 32
0.000000E+000
 13
-2.000000E+002
 23
0.000000E+000
 33
0.000000E+000
  0
3DFACE
  8
Layer
 10
-2.000000E+002
 20
0.000000E+000
 30
0.000000E+000
 11
-1.931852E+002
 21
0.000000E+000
 31
5.176381E+001
 12
-1.866026E+002
 22
-5.000000E+001
 32
5.176381E+001
 13
-1.866026E+002
 23
-5.000000E+001
 33
5.176381E+001
  0
3DFACE
  8
Layer
 10
-2.000000E+002
 20
0.000000E+000
 30
0.000000E+000
 11
-1.866026E+002
 21
-5.000000E+001
 31
5.176381E+001
 12
-1.931852E+002
 22
-5.176381E+001
 32
0.000000E+000
 13
-1.931852E+002
 23
-5.176381E+001
 33
0.000000E+000
  0
3DFACE
  8
Layer
 10
-1.931852E+002
 20
-5.176381E+001
 30
0.000000E+000
 11
-1.866026E+002
 21
-5.000000E+001
 31
5.176381E+001
 12
-1.673033E+002
 22
-9.659258E+001
 32
5.176381E+001
 13
-1.673033E+002
 23
-9.659258E+001
 33
5.176381E+001
  0
3DFACE
  8
Layer
 10
-1.931852E+002
 20
-5.176381E+001
 30
0.000000E+000
 11
-1.673033E+002
 21
-9.659258E+001
 31
5.176381E+001
 12
-1.732051E+002
 22
-1.000000E+002
 32
0.000000E+000
 13
-1.732051E+002
 23
-1.000000E+002
 33
0.000000E+000
  0
3DFACE
  8
Layer
 10
-1.732051E+002
 20
-1.000000E+002
 30
0.000000E+000
 11
-1.673033E+002
 21
-9.659258E+001
 31
5.176381E+001
 12
-1.366026E+002
 22
-1.366026E+002
 32
5.176381E+001
 13
-1.366026E+002
 23
-1.366026E+002
 33
5.176381E+001
  0
3DFACE
  8
Layer
 10
-1.732051E+002
 20
-1.000000E+002
 30
0.000000E+000
 11
-1.366026E+002
 21
-1.366026E+002
 31
5.176381E+001
 12
-1.414213E+002
 22
-1.414213E+002
 32
0.000000E+000
 13
-1.414213E+002
 23
-1.414213E+002
 33
0.000000E+000
  0
3DFACE
  8
Layer
 10
-1.414213E+002
 20
-1.414213E+002
 30
0.000000E+000
 11
-1.366026E+002
 21
-1.366026E+002
 31
5.176381E+001
 12
-9.659258E+001
 22
-1.673033E+002
 32
5.176381E+001
 13
-9.659258E+001
 23
-1.673033E+002
 33
5.176381E+001
  0
3DFACE
  8
Layer
 10
-1.414213E+002
 20
-1.414213E+002
 30
0.000000E+000
 11
-9.659258E+001
 21
-1.673033E+002
 31
5.176381E+001
 12
-1.000000E+002
 22
-1.732051E+002
 32
0.000000E+000
 13
-1.000000E+002
 23
-1.732051E+002
 33
0.000000E+000
  0
3DFACE
  8
Layer
 10
-1.000000E+002
 20
-1.732051E+002
 30
0.000000E+000
 11
-9.659258E+001
 21
-1.673033E+002
 31
5.176381E+001
 12
-5.000000E+001
 22
-1.866026E+002
 32
5.176381E+001
 13
-5.000000E+001
 23
-1.866026E+002
 33
5.176381E+001
  0
3DFACE
  8
Layer
 10
-1.000000E+002
 20
-1.732051E+002
 30
0.000000E+000
 11
-5.000000E+001
 21
-1.866026E+002
 31
5.176381E+001
 12
-5.176381E+001
 22
-1.931852E+002
 32
0.000000E+000
 13
-5.176381E+001
 23
-1.931852E+002
 33
0.000000E+000
  0
3DFACE
  8
Layer
 10
-5.176381E+001
 20
-1.931852E+002
 30
0.000000E+000
 11
-5.000000E+001
 21
-1.866026E+002
 31
5.176381E+001
 12
0.000000E+000
 22
-1.931852E+002
 32
5.176381E+001
 13
0.000000E+000
 23
-1.931852E+002
 33
5.176381E+001
  0
3DFACE
  8
Layer
 10
-5.176381E+001
 20
-1.931852E+002
 30
0.000000E+000
 11
0.000000E+000
 21
-1.931852E+002
 31
5.176381E+001
 12
0.000000E+000
 22
-2.000000E+002
 32
0.000000E+000
 13
0.000000E+000
 23
-2.000000E+002
 33
0.000000E+000
  0
3DFACE
  8
Layer
 10
0.000000E+000
 20
-2.000000E+002
 30
0.000000E+000
 11
0.000000E+000
 21
-1.931852E+002
 31
5.176381E+001
 12
5.000000E+001
 22
-1.866026E+002
 32
5.176381E+001
 13
5.000000E+001
 23
-1.866026E+002
 33
5.176381E+001
  0
3DFACE
  8
Layer
 10
0.000000E+000
 20
-2.000000E+002
 30
0.000000E+000
 11
5.000000E+001
 21
-1.866026E+002
 31
5.176381E+001
 12
5.176381E+001
 22
-1.931852E+002
 32
0.000000E+000
 13
5.176381E+001
 23
-1.931852E+002
 33
0.000000E+000
  0
3DFACE
  8
Layer
 10
5.176381E+001
 20
-1.931852E+002
 30
0.000000E+000
 11
5.000000E+001
 21
-1.866026E+002
 31
5.176381E+001
 12
9.659258E+001
 22
-1.673033E+002
 32
5.176381E+001
 13
9.659258E+001
 23
-1.673033E+002
 33
5.176381E+001
  0
3DFACE
  8
Layer
 10
5.176381E+001
 20
-1.931852E+002
 30
0.000000E+000
 11
9.659258E+001
 21
-1.673033E+002
 31
5.176381E+001
 12
1.000000E+002
 22
-1.732051E+002
 32
0.000000E+000
 13
1.000000E+002
 23
-1.732051E+002
 33
0.000000E+000
  0
3DFACE
  8
Layer
 10
1.000000E+002
 20
-1.732051E+002
 30
0.000000E+000
 11
9.659258E+001
 21
-1.673033E+002
 31
5.176381E+001
 12
1.366026E+002
 22
-1.366026E+002
 32
5.176381E+001
 13
1.366026E+002
 23
-1.366026E+002
 33
5.176381E+001
  0
3DFACE
  8
Layer
 10
1.000000E+002
 20
-1.732051E+002
 30
0.000000E+000
 11
1.366026E+002
 21
-1.366026E+002
 31
5.176381E+001
 12
1.414213E+002
 22
-1.414213E+002
 32
0.000000E+000
 13
1.414213E+002
 23
-1.414213E+002
 33
0.000000E+000
  0
3DFACE
  8
Layer
 10
1.414213E+002
 20
-1.414213E+002
 30
0.000000E+000
 11
1.366026E+002
 21
-1.366026E+002
 31
5.176381E+001
 12
1.673033E+002
 22
-9.659258E+001
 32
5.176381E+001
 13
1.673033E+002
 23
-9.659258E+001
 33
5.176381E+001
  0
3DFACE
  8
Layer
 10
1.414213E+002
 20
-1.414213E+002
 30
0.000000E+000
 11
1.673033E+002
 21
-9.659258E+001
 31
5.176381E+001
 12
1.732051E+002
 22
-1.000000E+002
 32
0.000000E+000
 13
1.732051E+002
 23
-1.000000E+002
 33
0.000000E+000
  0
3DFACE
  8
Layer
 10
1.732051E+002
 20
-1.000000E+002
 30
0.000000E+000
 11
1.673033E+002
 21
-9.659258E+001
 31
5.176381E+001
 12
1.866026E+002
 22
-5.000000E+001
 32
5.176381E+001
 13
1.866026E+002
 23
-5.000000E+001
 33
5.176381E+001
  0
3DFACE
  8
Layer
 10
1.732051E+002
 20
-1.000000E+002
 30
0.000000E+000
 11
1.866026E+002
 21
-5.000000E+001
 31
5.176381E+001
 12
1.931852E+002
 22
-5.176381E+001
 32
0.000000E+000
 13
1.931852E+002
 23
-5.176381E+001
 33
0.000000E+000
  0
3DFACE
  8
Layer
 10
1.931852E+002
 20
-5.176381E+001
 30
0.000000E+000
 11
1.866026E+002
 21
-5.000000E+001
 31
5.176381E+001
 12
1.931852E+002
 22
0.000000E+000
 32
5.176381E+001
 13
1.931852E+002
 23
0.000000E+000
 33
5.176381E+001
  0
3DFACE
  8
Layer
 10
1.931852E+002
 20
-5.176381E+001
 30
0.000000E+000
 11
1.931852E+002
 21
0.000000E+000
 31
5.176381E+001
 12
2.000000E+002
 22
0.000000E+000
 32
0.000000E+000
 13
2.000000E+002
 23
0.000000E+000
 33
0.000000E+000
  0
3DFACE
  8
Layer
 10
1.931852E+002
 20
0.000000E+000
 30
-5.176381E+001
 11
2.000000E+002
 21
0.000000E+000
 31
0.000000E+000
 12
1.931852E+002
 22
5.176381E+001
 32
0.000000E+000
 13
1.931852E+002
 23
5.176381E+001
 33
0.000000E+000
  0
3DFACE
  8
Layer
 10
1.931852E+002
 20
0.000000E+000
 30
-5.176381E+001
 11
1.931852E+002
 21
5.176381E+001
 31
0.000000E+000
 12
1.866026E+002
 22
5.000000E+001
 32
-5.176381E+001
 13
1.866026E+002
 23
5.000000E+001
 33
-5.176381E+001
  0
3DFACE
  8
Layer
 10
1.866026E+002
 20
5.000000E+001
 30
-5.176381E+001
 11
1.931852E+002
 21
5.176381E+001
 31
0.000000E+000
 12
1.732051E+002
 22
1.000000E+002
 32
0.000000E+000
 13
1.732051E+002
 23
1.000000E+002
 33
0.000000E+000
  0
3DFACE
  8
Layer
 10
1.866026E+002
 20
5.000000E+001
 30
-5.176381E+001
 11
1.732051E+002
 21
1.000000E+002
 31
0.000000E+000
 12
1.673033E+002
 22
9.659258E+001
 32
-5.176381E+001
 13
1.673033E+002
 23
9.659258E+001
 33
-5.176381E+001
  0
3DFACE
  8
Layer
 10
1.673033E+002
 20
9.659258E+001
 30
-5.176381E+001
 11
1.732051E+002
 21
1.000000E+002
 31
0.000000E+000
 12
1.414213E+002
 22
1.414213E+002
 32
0.000000E+000
 13
1.414213E+002
 23
1.414213E+002
 33
0.000000E+000
  0
3DFACE
  8
Layer
 10
1.673033E+002
 20
9.659258E+001
 30
-5.176381E+001
 11
1.414213E+002
 21
1.414213E+002
 31
0.000000E+000
 12
1.366026E+002
 22
1.366026E+002
 32
-5.176381E+001
 13
1.366026E+002
 23
1.366026E+002
 33
-5.176381E+001
  0
3DFACE
  8
Layer
 10
1.366026E+002
 20
1.366026E+002
 30
-5.176381E+001
 11
1.414213E+002
 21
1.414213E+002
 31
0.000000E+000
 12
1.000000E+002
 22
1.732051E+002
 32
0.000000E+000
 13
1.000000E+002
 23
1.732051E+002
 33
0.000000E+000
  0
3DFACE
  8
Layer
 10
1.366026E+002
 20
1.366026E+002
 30
-5.176381E+001
 11
1.000000E+002
 21
1.732051E+002
 31
0.000000E+000
 12
9.659258E+001
 22
1.673033E+002
 32
-5.176381E+001
 13
9.659258E+001
 23
1.673033E+002
 33
-5.176381E+001
  0
3DFACE
  8
Layer
 10
9.659258E+001
 20
1.673033E+002
 30
-5.176381E+001
 11
1.000000E+002
 21
1.732051E+002
 31
0.000000E+000
 12
5.176381E+001
 22
1.931852E+002
 32
0.000000E+000
 13
5.176381E+001
 23
1.931852E+002
 33
0.000000E+000
  0
3DFACE
  8
Layer
 10
9.659258E+001
 20
1.673033E+002
 30
-5.176381E+001
 11
5.176381E+001
 21
1.931852E+002
 31
0.000000E+000
 12
5.000000E+001
 22
1.866026E+002
 32
-5.176381E+001
 13
5.000000E+001
 23
1.866026E+002
 33
-5.176381E+001
  0
3DFACE
  8
Layer
 10
5.000000E+001
 20
1.866026E+002
 30
-5.176381E+001
 11
5.176381E+001
 21
1.931852E+002
 31
0.000000E+000
 12
0.000000E+000
 22
2.000000E+002
 32
0.000000E+000
 13
0.000000E+000
 23
2.000000E+002
 33
0.000000E+000
  0
3DFACE
  8
Layer
 10
5.000000E+001
 20
1.866026E+002
 30
-5.176381E+001
 11
0.000000E+000
 21
2.000000E+002
 31
0.000000E+000
 12
0.000000E+000
 22
1.931852E+002
 32
-5.176381E+001
 13
0.000000E+000
 23
1.931852E+002
 33
-5.176381E+001
  0
3DFACE
  8
Layer
 10
0.000000E+000
 20
1.931852E+002
 30
-5.176381E+001
 11
0.000000E+000
 21
2.000000E+002
 31
0.000000E+000
 12
-5.176381E+001
 22
1.931852E+002
 32
0.000000E+000
 13
-5.176381E+001
 23
1.931852E+002
 33
0.000000E+000
  0
3DFACE
  8
Layer
 10
0.000000E+000
 20
1.931852E+002
 30
-5.176381E+001
 11
-5.176381E+001
 21
1.931852E+002
 31
0.000000E+000
 12
-5.000000E+001
 22
1.866026E+002
 32
-5.176381E+001
 13
-5.000000E+001
 23
1.866026E+002
 33
-5.176381E+001
  0
3DFACE
  8
Layer
 10
-5.000000E+001
 20
1.866026E+002
 30
-5.176381E+001
 11
-5.176381E+001
 21
1.931852E+002
 31
0.000000E+000
 12
-1.000000E+002
 22
1.732051E+002
 32
0.000000E+000
 13
-1.000000E+002
 23
1.732051E+002
 33
0.000000E+000
  0
3DFACE
  8
Layer
 10
-5.000000E+001
 20
1.866026E+002
 30
-5.176381E+001
 11
-1.000000E+002
 21
1.732051E+002
 31
0.000000E+000
 12
-9.659258E+001
 22
1.673033E+002
 32
-5.176381E+001
 13
-9.659258E+001
 23
1.673033E+002
 33
-5.176381E+001
  0
3DFACE
  8
Layer
 10
-9.659258E+001
 20
1.673033E+002
 30
-5.176381E+001
 11
-1.000000E+002
 21
1.732051E+002
 31
0.000000E+000
 12
-1.414213E+002
 22
1.414213E+002
 32
0.000000E+000
 13
-1.414213E+002
 23
1.414213E+002
 33
0.000000E+000
  0
3DFACE
  8
Layer
 10
-9.659258E+001
 20
1.673033E+002
 30
-5.176381E+001
 11
-1.414213E+002
 21
1.414213E+002
 31
0.000000E+000
 12
-1.366026E+002
 22
1.366026E+002
 32
-5.176381E+001
 13
-1.366026E+002
 23
1.366026E+002
 33
-5.176381E+001
  0
3DFACE
  8
Layer
 10
-1.366026E+002
 20
1.366026E+002
 30
-5.176381E+001
 11
-1.414213E+002
 21
1.414213E+002
 31
0.000000E+000
 12
-1.732051E+002
 22
1.000000E+002
 32
0.000000E+000
 13
-1.732051E+002
 23
1.000000E+002
 33
0.000000E+000
  0
3DFACE
  8
Layer
 10
-1.366026E+002
 20
1.366026E+002
 30
-5.176381E+001
 11
-1.732051E+002
 21
1.000000E+002
 31
0.000000E+000
 12
-1.673033E+002
 22
9.659258E+001
 32
-5.176381E+001
 13
-1.673033E+002
 23
9.659258E+001
 33
-5.176381E+001
  0
3DFACE
  8
Layer
 10
-1.673033E+002
 20
9.659258E+001
 30
-5.176381E+001
 11
-1.732051E+002
 21
1.000000E+002
 31
0.000000E+000
 12
-1.931852E+002
 22
5.176381E+001
 32
0.000000E+000
 13
-1.931852E+002
 23
5.176381E+001
 33
0.000000E+000
  0
3DFACE
  8
Layer
 10
-1.673033E+002
 20
9.659258E+001
 30
-5.176381E+001
 11
-1.931852E+002
 21
5.176381E+001
 31
0.000000E+000
 12
-1.866026E+002
 22
5.000000E+001
 32
-5.176381E+001
 13
-1.866026E+002
 23
5.000000E+001
 33
-5.176381E+001
  0
3DFACE
  8
Layer
 10
-1.866026E+002
 20
5.000000E+001
 30
-5.176381E+001
 11
-1.931852E+002
 21
5.176381E+001
 31
0.000000E+000
 12
-2.000000E+002
 22
0.000000E+000
 32
0.000000E+000
 13
-2.000000E+002
 23
0.000000E+000
 33
0.000000E+000
  0
3DFACE
  8
Layer
 10
-1.866026E+002
 20
5.000000E+001
 30
-5.176381E+001
 11
-2.000000E+002
 21
0.000000E+000
 31
0.000000E+000
 12
-1.931852E+002
 22
0.000000E+000
 32
-5.176381E+001
 13
-1.931852E+002
 23
0.000000E+000
 33
-5.176381E+001
  0
3DFACE
  8
Layer
 10
-1.931852E+002
 20
0.000000E+000
 30
-5.176381E+001
 11
-2.000000E+002
 21
0.000000E+000
 31
0.000000E+000
 12
-1.931852E+002
 22
-5.176381E+001
 32
0.000000E+000
 13
-1.931852E+002
 23
-5.176381E+001
 33
0.000000E+000
  0
3DFACE
  8
Layer
 10
-1.931852E+002
 20
0.000000E+000
 30
-5.176381E+001
 11
-1.931852E+002
 21
-5.176381E+001
 31
0.000000E+000
 12
-1.866026E+002
 22
-5.000000E+001
 32
-5.176381E+001
 13
-1.866026E+002
 23
-5.000000E+001
 33
-5.176381E+001
  0
3DFACE
  8
Layer
 10
-1.866026E+002
 20
-5.000000E+001
 30
-5.176381E+001
 11
-1.931852E+002
 21
-5.176381E+001
 31
0.000000E+000
 12
-1.732051E+002
 22
-1.000000E+002
 32
0.000000E+000
 13
-1.732051E+002
 23
-1.000000E+002
 33
0.000000E+000
  0
3DFACE
  8
Layer
 10
-1.866026E+002
 20
-5.000000E+001
 30
-5.176381E+001
 11
-1.732051E+002
 21
-1.000000E+002
 31
0.000000E+000
 12
-1.673033E+002
 22
-9.659258E+001
 32
-5.176381E+001
 13
-1.673033E+002
 23
-9.659258E+001
 33
-5.176381E+001
  0
3DFACE
  8
Layer
 10
-1.673033E+002
 20
-9.659258E+001
 30
-5.176381E+001
 11
-1.732051E+002
 21
-1.000000E+002
 31
0.000000E+000
 12
-1.414213E+002
 22
-1.414213E+002
 32
0.000000E+000
 13
-1.414213E+002
 23
-1.414213E+002
 33
0.000000E+000
  0
3DFACE
  8
Layer
 10
-1.673033E+002
 20
-9.659258E+001
 30
-5.176381E+001
 11
-1.414213E+002
 21
-1.414213E+002
 31
0.000000E+000
 12
-1.366026E+002
 22
-1.366026E+002
 32
-5.176381E+001
 13
-1.366026E+002
 23
-1.366026E+002
 33
-5.176381E+001
  0
3DFACE
  8
Layer
 10
-1.366026E+002
 20
-1.366026E+002
 30
-5.176381E+001
 11
-1.414213E+002
 21
-1.414213E+002
 31
0.000000E+000
 12
-1.000000E+002
 22
-1.732051E+002
 32
0.000000E+000
 13
-1.000000E+002
 23
-1.732051E+002
 33
0.000000E+000
  0
3DFACE
  8
Layer
 10
-1.366026E+002
 20
-1.366026E+002
 30
-5.176381E+001
 11
-1.000000E+002
 21
-1.732051E+002
 31
0.000000E+000
 12
-9.659258E+001
 22
-1.673033E+002
 32
-5.176381E+001
 13
-9.659258E+001
 23
-1.673033E+002
 33
-5.176381E+001
  0
3DFACE
  8
Layer
 10
-9.659258E+001
 20
-1.673033E+002
 30
-5.176381E+001
 11
-1.000000E+002
 21
-1.732051E+002
 31
0.000000E+000
 12
-5.176381E+001
 22
-1.931852E+002
 32
0.000000E+000
 13
-5.176381E+001
 23
-1.931852E+002
 33
0.000000E+000
  0
3DFACE
  8
Layer
 10
-9.659258E+001
 20
-1.673033E+002
 30
-5.176381E+001
 11
-5.176381E+001
 21
-1.931852E+002
 31
0.000000E+000
 12
-5.000000E+001
 22
-1.866026E+002
 32
-5.176381E+001
 13
-5.000000E+001
 23
-1.866026E+002
 33
-5.176381E+001
  0
3DFACE
  8
Layer
 10
-5.000000E+001
 20
-1.866026E+002
 30
-5.176381E+001
 11
-5.176381E+001
 21
-1.931852E+002
 31
0.000000E+000
 12
0.000000E+000
 22
-2.000000E+002
 32
0.000000E+000
 13
0.000000E+000
 23
-2.000000E+002
 33
0.000000E+000
  0
3DFACE
  8
Layer
 10
-5.000000E+001
 20
-1.866026E+002
 30
-5.176381E+001
 11
0.000000E+000
 21
-2.000000E+002
 31
0.000000E+000
 12
0.000000E+000
 22
-1.931852E+002
 32
-5.176381E+001
 13
0.000000E+000
 23
-1.931852E+002
 33
-5.176381E+001
  0
3DFACE
  8
Layer
 10
0.000000E+000
 20
-1.931852E+002
 30
-5.176381E+001
 11
0.000000E+000
 21
-2.000000E+002
 31
0.000000E+000
 12
5.176381E+001
 22
-1.931852E+002
 32
0.000000E+000
 13
5.176381E+001
 23
-1.931852E+002
 33
0.000000E+000
  0
3DFACE
  8
Layer
 10
0.000000E+000
 20
-1.931852E+002
 30
-5.176381E+001
 11
5.176381E+001
 21
-1.931852E+002
 31
0.000000E+000
 12
5.000000E+001
 22
-1.866026E+002
 32
-5.176381E+001
 13
5.000000E+001
 23
-1.866026E+002
 33
-5.176381E+001
  0
3DFACE
  8
Layer
 10
5.000000E+001
 20
-1.866026E+002
 30
-5.176381E+001
 11
5.176381E+001
 21
-1.931852E+002
 31
0.000000E+000
 12
1.000000E+002
 22
-1.732051E+002
 32
0.000000E+000
 13
1.000000E+002
 23
-1.732051E+002
 33
0.000000E+000
  0
3DFACE
  8
Layer
 10
5.000000E+001
 20
-1.866026E+002
 30
-5.176381E+001
 11
1.000000E+002
 21
-1.732051E+002
 31
0.000000E+000
 12
9.659258E+001
 22
-1.673033E+002
 32
-5.176381E+001
 13
9.659258E+001
 23
-1.673033E+002
 33
-5.176381E+001
  0
3DFACE
  8
Layer
 10
9.659258E+001
 20
-1.673033E+002
 30
-5.176381E+001
 11
1.000000E+002
 21
-1.732051E+002
 31
0.000000E+000
 12
1.414213E+002
 22
-1.414213E+002
 32
0.000000E+000
 13
1.414213E+002
 23
-1.414213E+002
 33
0.000000E+000
  0
3DFACE
  8
Layer
 10
9.659258E+001
 20
-1.673033E+002
 30
-5.176381E+001
 11
1.414213E+002
 21
-1.414213E+002
 31
0.000000E+000
 12
1.366026E+002
 22
-1.366026E+002
 32
-5.176381E+001
 13
1.366026E+002
 23
-1.366026E+002
 33
-5.176381E+001
  0
3DFACE
  8
Layer
 10
1.366026E+002
 20
-1.366026E+002
 30
-5.176381E+001
 11
1.414213E+002
 21
-1.414213E+002
 31
0.000000E+000
 12
1.732051E+002
 22
-1.000000E+002
 32
0.000000E+000
 13
1.732051E+002
 23
-1.000000E+002
 33
0.000000E+000
  0
3DFACE
  8
Layer
 10
1.366026E+002
 20
-1.366026E+002
 30
-5.176381E+001
 11
1.732051E+002
 21
-1.000000E+002
 31
0.000000E+000
 12
1.673033E+002
 22
-9.659258E+001
 32
-5.176381E+001
 13
1.673033E+002
 23
-9.659258E+001
 33
-5.176381E+001
  0
3DFACE
  8
Layer
 10
1.673033E+002
 20
-9.659258E+001
 30
-5.176381E+001
 11
1.732051E+002
 21
-1.000000E+002
 31
0.000000E+000
 12
1.931852E+002
 22
-5.176381E+001
 32
0.000000E+000
 13
1.931852E+002
 23
-5.176381E+001
 33
0.000000E+000
  0
3DFACE
  8
Layer
 10
1.673033E+002
 20
-9.659258E+001
 30
-5.176381E+001
 11
1.931852E+002
 21
-5.176381E+001
 31
0.000000E+000
 12
1.866026E+002
 22
-5.000000E+001
 32
-5.176381E+001
 13
1.866026E+002
 23
-5.000000E+001
 33
-5.176381E+001
  0
3DFACE
  8
Layer
 10
1.866026E+002
 20
-5.000000E+001
 30
-5.176381E+001
 11
1.931852E+002
 21
-5.176381E+001
 31
0.000000E+000
 12
2.000000E+002
 22
0.000000E+000
 32
0.000000E+000
 13
2.000000E+002
 23
0.000000E+000
 33
0.000000E+000
  0
3DFACE
  8
Layer
 10
1.866026E+002
 20
-5.000000E+001
 30
-5.176381E+001
 11
2.000000E+002
 21
0.000000E+000
 31
0.000000E+000
 12
1.931852E+002
 22
0.000000E+000
 32
-5.176381E+001
 13
1.931852E+002
 23
0.000000E+000
 33
-5.176381E+001
  0
3DFACE
  8
Layer
 10
1.732051E+002
 20
0.000000E+000
 30
-1.000000E+002
 11
1.931852E+002
 21
0.000000E+000
 31
-5.176381E+001
 12
1.866026E+002
 22
5.000000E+001
 32
-5.176381E+001
 13
1.866026E+002
 23
5.000000E+001
 33
-5.176381E+001
  0
3DFACE
  8
Layer
 10
1.732051E+002
 20
0.000000E+000
 30
-1.000000E+002
 11
1.866026E+002
 21
5.000000E+001
 31
-5.176381E+001
 12
1.673033E+002
 22
4.482877E+001
 32
-1.000000E+002
 13
1.673033E+002
 23
4.482877E+001
 33
-1.000000E+002
  0
3DFACE
  8
Layer
 10
1.673033E+002
 20
4.482877E+001
 30
-1.000000E+002
 11
1.866026E+002
 21
5.000000E+001
 31
-5.176381E+001
 12
1.673033E+002
 22
9.659258E+001
 32
-5.176381E+001
 13
1.673033E+002
 23
9.659258E+001
 33
-5.176381E+001
  0
3DFACE
  8
Layer
 10
1.673033E+002
 20
4.482877E+001
 30
-1.000000E+002
 11
1.673033E+002
 21
9.659258E+001
 31
-5.176381E+001
 12
1.500000E+002
 22
8.660254E+001
 32
-1.000000E+002
 13
1.500000E+002
 23
8.660254E+001
 33
-1.000000E+002
  0
3DFACE
  8
Layer
 10
1.500000E+002
 20
8.660254E+001
 30
-1.000000E+002
 11
1.673033E+002
 21
9.659258E+001
 31
-5.176381E+001
 12
1.366026E+002
 22
1.366026E+002
 32
-5.176381E+001
 13
1.366026E+002
 23
1.366026E+002
 33
-5.176381E+001
  0
3DFACE
  8
Layer
 10
1.500000E+002
 20
8.660254E+001
 30
-1.000000E+002
 11
1.366026E+002
 21
1.366026E+002
 31
-5.176381E+001
 12
1.224745E+002
 22
1.224745E+002
 32
-1.000000E+002
 13
1.224745E+002
 23
1.224745E+002
 33
-1.000000E+002
  0
3DFACE
  8
Layer
 10
1.224745E+002
 20
1.224745E+002
 30
-1.000000E+002
 11
1.366026E+002
 21
1.366026E+002
 31
-5.176381E+001
 12
9.659258E+001
 22
1.673033E+002
 32
-5.176381E+001
 13
9.659258E+001
 23
1.673033E+002
 33
-5.176381E+001
  0
3DFACE
  8
Layer
 10
1.224745E+002
 20
1.224745E+002
 30
-1.000000E+002
 11
9.659258E+001
 21
1.673033E+002
 31
-5.176381E+001
 12
8.660254E+001
 22
1.500000E+002
 32
-1.000000E+002
 13
8.660254E+001
 23
1.500000E+002
 33
-1.000000E+002
  0
3DFACE
  8
Layer
 10
8.660254E+001
 20
1.500000E+002
 30
-1.000000E+002
 11
9.659258E+001
 21
1.673033E+002
 31
-5.176381E+001
 12
5.000000E+001
 22
1.866026E+002
 32
-5.176381E+001
 13
5.000000E+001
 23
1.866026E+002
 33
-5.176381E+001
  0
3DFACE
  8
Layer
 10
8.660254E+001
 20
1.500000E+002
 30
-1.000000E+002
 11
5.000000E+001
 21
1.866026E+002
 31
-5.176381E+001
 12
4.482877E+001
 22
1.673033E+002
 32
-1.000000E+002
 13
4.482877E+001
 23
1.673033E+002
 33
-1.000000E+002
  0
3DFACE
  8
Layer
 10
4.482877E+001
 20
1.673033E+002
 30
-1.000000E+002
 11
5.000000E+001
 21
1.866026E+002
 31
-5.176381E+001
 12
0.000000E+000
 22
1.931852E+002
 32
-5.176381E+001
 13
0.000000E+000
 23
1.931852E+002
 33
-5.176381E+001
  0
3DFACE
  8
Layer
 10
4.482877E+001
 20
1.673033E+002
 30
-1.000000E+002
 11
0.000000E+000
 21
1.931852E+002
 31
-5.176381E+001
 12
0.000000E+000
 22
1.732051E+002
 32
-1.000000E+002
 13
0.000000E+000
 23
1.732051E+002
 33
-1.000000E+002
  0
3DFACE
  8
Layer
 10
0.000000E+000
 20
1.732051E+002
 30
-1.000000E+002
 11
0.000000E+000
 21
1.931852E+002
 31
-5.176381E+001
 12
-5.000000E+001
 22
1.866026E+002
 32
-5.176381E+001
 13
-5.000000E+001
 23
1.866026E+002
 33
-5.176381E+001
  0
3DFACE
  8
Layer
 10
0.000000E+000
 20
1.732051E+002
 30
-1.000000E+002
 11
-5.000000E+001
 21
1.866026E+002
 31
-5.176381E+001
 12
-4.482877E+001
 22
1.673033E+002
 32
-1.000000E+002
 13
-4.482877E+001
 23
1.673033E+002
 33
-1.000000E+002
  0
3DFACE
  8
Layer
 10
-4.482877E+001
 20
1.673033E+002
 30
-1.000000E+002
 11
-5.000000E+001
 21
1.866026E+002
 31
-5.176381E+001
 12
-9.659258E+001
 22
1.673033E+002
 32
-5.176381E+001
 13
-9.659258E+001
 23
1.673033E+002
 33
-5.176381E+001
  0
3DFACE
  8
Layer
 10
-4.482877E+001
 20
1.673033E+002
 30
-1.000000E+002
 11
-9.659258E+001
 21
1.673033E+002
 31
-5.176381E+001
 12
-8.660254E+001
 22
1.500000E+002
 32
-1.000000E+002
 13
-8.660254E+001
 23
1.500000E+002
 33
-1.000000E+002
  0
3DFACE
  8
Layer
 10
-8.660254E+001
 20
1.500000E+002
 30
-1.000000E+002
 11
-9.659258E+001
 21
1.673033E+002
 31
-5.176381E+001
 12
-1.366026E+002
 22
1.366026E+002
 32
-5.176381E+001
 13
-1.366026E+002
 23
1.366026E+002
 33
-5.176381E+001
  0
3DFACE
  8
Layer
 10
-8.660254E+001
 20
1.500000E+002
 30
-1.000000E+002
 11
-1.366026E+002
 21
1.366026E+002
 31
-5.176381E+001
 12
-1.224745E+002
 22
1.224745E+002
 32
-1.000000E+002
 13
-1.224745E+002
 23
1.224745E+002
 33
-1.000000E+002
  0
3DFACE
  8
Layer
 10
-1.224745E+002
 20
1.224745E+002
 30
-1.000000E+002
 11
-1.366026E+002
 21
1.366026E+002
 31
-5.176381E+001
 12
-1.673033E+002
 22
9.659258E+001
 32
-5.176381E+001
 13
-1.673033E+002
 23
9.659258E+001
 33
-5.176381E+001
  0
3DFACE
  8
Layer
 10
-1.224745E+002
 20
1.224745E+002
 30
-1.000000E+002
 11
-1.673033E+002
 21
9.659258E+001
 31
-5.176381E+001
 12
-1.500000E+002
 22
8.660254E+001
 32
-1.000000E+002
 13
-1.500000E+002
 23
8.660254E+001
 33
-1.000000E+002
  0
3DFACE
  8
Layer
 10
-1.500000E+002
 20
8.660254E+001
 30
-1.000000E+002
 11
-1.673033E+002
 21
9.659258E+001
 31
-5.176381E+001
 12
-1.866026E+002
 22
5.000000E+001
 32
-5.176381E+001
 13
-1.866026E+002
 23
5.000000E+001
 33
-5.176381E+001
  0
3DFACE
  8
Layer
 10
-1.500000E+002
 20
8.660254E+001
 30
-1.000000E+002
 11
-1.866026E+002
 21
5.000000E+001
 31
-5.176381E+001
 12
-1.673033E+002
 22
4.482877E+001
 32
-1.000000E+002
 13
-1.673033E+002
 23
4.482877E+001
 33
-1.000000E+002
  0
3DFACE
  8
Layer
 10
-1.673033E+002
 20
4.482877E+001
 30
-1.000000E+002
 11
-1.866026E+002
 21
5.000000E+001
 31
-5.176381E+001
 12
-1.931852E+002
 22
0.000000E+000
 32
-5.176381E+001
 13
-1.931852E+002
 23
0.000000E+000
 33
-5.176381E+001
  0
3DFACE
  8
Layer
 10
-1.673033E+002
 20
4.482877E+001
 30
-1.000000E+002
 11
-1.931852E+002
 21
0.000000E+000
 31
-5.176381E+001
 12
-1.732051E+002
 22
0.000000E+000
 32
-1.000000E+002
 13
-1.732051E+002
 23
0.000000E+000
 33
-1.000000E+002
  0
3DFACE
  8
Layer
 10
-1.732051E+002
 20
0.000000E+000
 30
-1.000000E+002
 11
-1.931852E+002
 21
0.000000E+000
 31
-5.176381E+001
 12
-1.866026E+002
 22
-5.000000E+001
 32
-5.176381E+001
 13
-1.866026E+002
 23
-5.000000E+001
 33
-5.176381E+001
  0
3DFACE
  8
Layer
 10
-1.732051E+002
 20
0.000000E+000
 30
-1.000000E+002
 11
-1.866026E+002
 21
-5.000000E+001
 31
-5.176381E+001
 12
-1.673033E+002
 22
-4.482877E+001
 32
-1.000000E+002
 13
-1.673033E+002
 23
-4.482877E+001
 33
-1.000000E+002
  0
3DFACE
  8
Layer
 10
-1.673033E+002
 20
-4.482877E+001
 30
-1.000000E+002
 11
-1.866026E+002
 21
-5.000000E+001
 31
-5.176381E+001
 12
-1.673033E+002
 22
-9.659258E+001
 32
-5.176381E+001
 13
-1.673033E+002
 23
-9.659258E+001
 33
-5.176381E+001
  0
3DFACE
  8
Layer
 10
-1.673033E+002
 20
-4.482877E+001
 30
-1.000000E+002
 11
-1.673033E+002
 21
-9.659258E+001
 31
-5.176381E+001
 12
-1.500000E+002
 22
-8.660254E+001
 32
-1.000000E+002
 13
-1.500000E+002
 23
-8.660254E+001
 33
-1.000000E+002
  0
3DFACE
  8
Layer
 10
-1.500000E+002
 20
-8.660254E+001
 30
-1.000000E+002
 11
-1.673033E+002
 21
-9.659258E+001
 31
-5.176381E+001
 12
-1.366026E+002
 22
-1.366026E+002
 32
-5.176381E+001
 13
-1.366026E+002
 23
-1.366026E+002
 33
-5.176381E+001
  0
3DFACE
  8
Layer
 10
-1.500000E+002
 20
-8.660254E+001
 30
-1.000000E+002
 11
-1.366026E+002
 21
-1.366026E+002
 31
-5.176381E+001
 12
-1.224745E+002
 22
-1.224745E+002
 32
-1.000000E+002
 13
-1.224745E+002
 23
-1.224745E+002
 33
-1.000000E+002
  0
3DFACE
  8
Layer
 10
-1.224745E+002
 20
-1.224745E+002
 30
-1.000000E+002
 11
-1.366026E+002
 21
-1.366026E+002
 31
-5.176381E+001
 12
-9.659258E+001
 22
-1.673033E+002
 32
-5.176381E+001
 13
-9.659258E+001
 23
-1.673033E+002
 33
-5.176381E+001
  0
3DFACE
  8
Layer
 10
-1.224745E+002
 20
-1.224745E+002
 30
-1.000000E+002
 11
-9.659258E+001
 21
-1.673033E+002
 31
-5.176381E+001
 12
-8.660254E+001
 22
-1.500000E+002
 32
-1.000000E+002
 13
-8.660254E+001
 23
-1.500000E+002
 33
-1.000000E+002
  0
3DFACE
  8
Layer
 10
-8.660254E+001
 20
-1.500000E+002
 30
-1.000000E+002
 11
-9.659258E+001
 21
-1.673033E+002
 31
-5.176381E+001
 12
-5.000000E+001
 22
-1.866026E+002
 32
-5.176381E+001
 13
-5.000000E+001
 23
-1.866026E+002
 33
-5.176381E+001
  0
3DFACE
  8
Layer
 10
-8.660254E+001
 20
-1.500000E+002
 30
-1.000000E+002
 11
-5.000000E+001
 21
-1.866026E+002
 31
-5.176381E+001
 12
-4.482877E+001
 22
-1.673033E+002
 32
-1.000000E+002
 13
-4.482877E+001
 23
-1.673033E+002
 33
-1.000000E+002
  0
3DFACE
  8
Layer
 10
-4.482877E+001
 20
-1.673033E+002
 30
-1.000000E+002
 11
-5.000000E+001
 21
-1.866026E+002
 31
-5.176381E+001
 12
0.000000E+000
 22
-1.931852E+002
 32
-5.176381E+001
 13
0.000000E+000
 23
-1.931852E+002
 33
-5.176381E+001
  0
3DFACE
  8
Layer
 10
-4.482877E+001
 20
-1.673033E+002
 30
-1.000000E+002
 11
0.000000E+000
 21
-1.931852E+002
 31
-5.176381E+001
 12
0.000000E+000
 22
-1.732051E+002
 32
-1.000000E+002
 13
0.000000E+000
 23
-1.732051E+002
 33
-1.000000E+002
  0
3DFACE
  8
Layer
 10
0.000000E+000
 20
-1.732051E+002
 30
-1.000000E+002
 11
0.000000E+000
 21
-1.931852E+002
 31
-5.176381E+001
 12
5.000000E+001
 22
-1.866026E+002
 32
-5.176381E+001
 13
5.000000E+001
 23
-1.866026E+002
 33
-5.176381E+001
  0
3DFACE
  8
Layer
 10
0.000000E+000
 20
-1.732051E+002
 30
-1.000000E+002
 11
5.000000E+001
 21
-1.866026E+002
 31
-5.176381E+001
 12
4.482877E+001
 22
-1.673033E+002
 32
-1.000000E+002
 13
4.482877E+001
 23
-1.673033E+002
 33
-1.000000E+002
  0
3DFACE
  8
Layer
 10
4.482877E+001
 20
-1.673033E+002
 30
-1.000000E+002
 11
5.000000E+001
 21
-1.866026E+002
 31
-5.176381E+001
 12
9.659258E+001
 22
-1.673033E+002
 32
-5.176381E+001
 13
9.659258E+001
 23
-1.673033E+002
 33
-5.176381E+001
  0
3DFACE
  8
Layer
 10
4.482877E+001
 20
-1.673033E+002
 30
-1.000000E+002
 11
9.659258E+001
 21
-1.673033E+002
 31
-5.176381E+001
 12
8.660254E+001
 22
-1.500000E+002
 32
-1.000000E+002
 13
8.660254E+001
 23
-1.500000E+002
 33
-1.000000E+002
  0
3DFACE
  8
Layer
 10
8.660254E+001
 20
-1.500000E+002
 30
-1.000000E+002
 11
9.659258E+001
 21
-1.673033E+002
 31
-5.176381E+001
 12
1.366026E+002
 22
-1.366026E+002
 32
-5.176381E+001
 13
1.366026E+002
 23
-1.366026E+002
 33
-5.176381E+001
  0
3DFACE
  8
Layer
 10
8.660254E+001
 20
-1.500000E+002
 30
-1.000000E+002
 11
1.366026E+002
 21
-1.366026E+002
 31
-5.176381E+001
 12
1.224745E+002
 22
-1.224745E+002
 32
-1.000000E+002
 13
1.224745E+002
 23
-1.224745E+002
 33
-1.000000E+002
  0
3DFACE
  8
Layer
 10
1.224745E+002
 20
-1.224745E+002
 30
-1.000000E+002
 11
1.366026E+002
 21
-1.366026E+002
 31
-5.176381E+001
 12
1.673033E+002
 22
-9.659258E+001
 32
-5.176381E+001
 13
1.673033E+002
 23
-9.659258E+001
 33
-5.176381E+001
  0
3DFACE
  8
Layer
 10
1.224745E+002
 20
-1.224745E+002
 30
-1.000000E+002
 11
1.673033E+002
 21
-9.659258E+001
 31
-5.176381E+001
 12
1.500000E+002
 22
-8.660254E+001
 32
-1.000000E+002
 13
1.500000E+002
 23
-8.660254E+001
 33
-1.000000E+002
  0
3DFACE
  8
Layer
 10
1.500000E+002
 20
-8.660254E+001
 30
-1.000000E+002
 11
1.673033E+002
 21
-9.659258E+001
 31
-5.176381E+001
 12
1.866026E+002
 22
-5.000000E+001
 32
-5.176381E+001
 13
1.866026E+002
 23
-5.000000E+001
 33
-5.176381E+001
  0
3DFACE
  8
Layer
 10
1.500000E+002
 20
-8.660254E+001
 30
-1.000000E+002
 11
1.866026E+002
 21
-5.000000E+001
 31
-5.176381E+001
 12
1.673033E+002
 22
-4.482877E+001
 32
-1.000000E+002
 13
1.673033E+002
 23
-4.482877E+001
 33
-1.000000E+002
  0
3DFACE
  8
Layer
 10
1.673033E+002
 20
-4.482877E+001
 30
-1.000000E+002
 11
1.866026E+002
 21
-5.000000E+001
 31
-5.176381E+001
 12
1.931852E+002
 22
0.000000E+000
 32
-5.176381E+001
 13
1.931852E+002
 23
0.000000E+000
 33
-5.176381E+001
  0
3DFACE
  8
Layer
 10
1.673033E+002
 20
-4.482877E+001
 30
-1.000000E+002
 11
1.931852E+002
 21
0.000000E+000
 31
-5.176381E+001
 12
1.732051E+002
 22
0.000000E+000
 32
-1.000000E+002
 13
1.732051E+002
 23
0.000000E+000
 33
-1.000000E+002
  0
3DFACE
  8
Layer
 10
1.414213E+002
 20
0.000000E+000
 30
-1.414213E+002
 11
1.732051E+002
 21
0.000000E+000
 31
-1.000000E+002
 12
1.673033E+002
 22
4.482877E+001
 32
-1.000000E+002
 13
1.673033E+002
 23
4.482877E+001
 33
-1.000000E+002
  0
3DFACE
  8
Layer
 10
1.414213E+002
 20
0.000000E+000
 30
-1.414213E+002
 11
1.673033E+002
 21
4.482877E+001
 31
-1.000000E+002
 12
1.366026E+002
 22
3.660254E+001
 32
-1.414213E+002
 13
1.366026E+002
 23
3.660254E+001
 33
-1.414213E+002
  0
3DFACE
  8
Layer
 10
1.366026E+002
 20
3.660254E+001
 30
-1.414213E+002
 11
1.673033E+002
 21
4.482877E+001
 31
-1.000000E+002
 12
1.500000E+002
 22
8.660254E+001
 32
-1.000000E+002
 13
1.500000E+002
 23
8.660254E+001
 33
-1.000000E+002
  0
3DFACE
  8
Layer
 10
1.366026E+002
 20
3.660254E+001
 30
-1.414213E+002
 11
1.500000E+002
 21
8.660254E+001
 31
-1.000000E+002
 12
1.224745E+002
 22
7.071067E+001
 32
-1.414213E+002
 13
1.224745E+002
 23
7.071067E+001
 33
-1.414213E+002
  0
3DFACE
  8
Layer
 10
1.224745E+002
 20
7.071067E+001
 30
-1.414213E+002
 11
1.500000E+002
 21
8.660254E+001
 31
-1.000000E+002
 12
1.224745E+002
 22
1.224745E+002
 32
-1.000000E+002
 13
1.224745E+002
 23
1.224745E+002
 33
-1.000000E+002
  0
3DFACE
  8
Layer
 10
1.224745E+002
 20
7.071067E+001
 30
-1.414213E+002
 11
1.224745E+002
 21
1.224745E+002
 31
-1.000000E+002
 12
1.000000E+002
 22
1.000000E+002
 32
-1.414213E+002
 13
1.000000E+002
 23
1.000000E+002
 33
-1.414213E+002
  0
3DFACE
  8
Layer
 10
1.000000E+002
 20
1.000000E+002
 30
-1.414213E+002
 11
1.224745E+002
 21
1.224745E+002
 31
-1.000000E+002
 12
8.660254E+001
 22
1.500000E+002
 32
-1.000000E+002
 13
8.660254E+001
 23
1.500000E+002
 33
-1.000000E+002
  0
3DFACE
  8
Layer
 10
1.000000E+002
 20
1.000000E+002
 30
-1.414213E+002
 11
8.660254E+001
 21
1.500000E+002
 31
-1.000000E+002
 12
7.071067E+001
 22
1.224745E+002
 32
-1.414213E+002
 13
7.071067E+001
 23
1.224745E+002
 33
-1.414213E+002
  0
3DFACE
  8
Layer
 10
7.071067E+001
 20
1.224745E+002
 30
-1.414213E+002
 11
8.660254E+001
 21
1.500000E+002
 31
-1.000000E+002
 12
4.482877E+001
 22
1.673033E+002
 32
-1.000000E+002
 13
4.482877E+001
 23
1.673033E+002
 33
-1.000000E+002
  0
3DFACE
  8
Layer
 10
7.071067E+001
 20
1.224745E+002
 30
-1.414213E+002
 11
4.482877E+001
 21
1.673033E+002
 31
-1.000000E+002
 12
3.660254E+001
 22
1.366026E+002
 32
-1.414213E+002
 13
3.660254E+001
 23
1.366026E+002
 33
-1.414213E+002
  0
3DFACE
  8
Layer
 10
3.660254E+001
 20
1.366026E+002
 30
-1.414213E+002
 11
4.482877E+001
 21
1.673033E+002
 31
-1.000000E+002
 12
0.000000E+000
 22
1.732051E+002
 32
-1.000000E+002
 13
0.000000E+000
 23
1.732051E+002
 33
-1.000000E+002
  0
3DFACE
  8
Layer
 10
3.660254E+001
 20
1.366026E+002
 30
-1.414213E+002
 11
0.000000E+000
 21
1.732051E+002
 31
-1.000000E+002
 12
0.000000E+000
 22
1.414213E+002
 32
-1.414213E+002
 13
0.000000E+000
 23
1.414213E+002
 33
-1.414213E+002
  0
3DFACE
  8
Layer
 10
0.000000E+000
 20
1.414213E+002
 30
-1.414213E+002
 11
0.000000E+000
 21
1.732051E+002
 31
-1.000000E+002
 12
-4.482877E+001
 22
1.673033E+002
 32
-1.000000E+002
 13
-4.482877E+001
 23
1.673033E+002
 33
-1.000000E+002
  0
3DFACE
  8
Layer
 10
0.000000E+000
 20
1.414213E+002
 30
-1.414213E+002
 11
-4.482877E+001
 21
1.673033E+002
 31
-1.000000E+002
 12
-3.660254E+001
 22
1.366026E+002
 32
-1.414213E+002
 13
-3.660254E+001
 23
1.366026E+002
 33
-1.414213E+002
  0
3DFACE
  8
Layer
 10
-3.660254E+001
 20
1.366026E+002
 30
-1.414213E+002
 11
-4.482877E+001
 21
1.673033E+002
 31
-1.000000E+002
 12
-8.660254E+001
 22
1.500000E+002
 32
-1.000000E+002
 13
-8.660254E+001
 23
1.500000E+002
 33
-1.000000E+002
  0
3DFACE
  8
Layer
 10
-3.660254E+001
 20
1.366026E+002
 30
-1.414213E+002
 11
-8.660254E+001
 21
1.500000E+002
 31
-1.000000E+002
 12
-7.071067E+001
 22
1.224745E+002
 32
-1.414213E+002
 13
-7.071067E+001
 23
1.224745E+002
 33
-1.414213E+002
  0
3DFACE
  8
Layer
 10
-7.071067E+001
 20
1.224745E+002
 30
-1.414213E+002
 11
-8.660254E+001
 21
1.500000E+002
 31
-1.000000E+002
 12
-1.224745E+002
 22
1.224745E+002
 32
-1.000000E+002
 13
-1.224745E+002
 23
1.224745E+002
 33
-1.000000E+002
  0
3DFACE
  8
Layer
 10
-7.071067E+001
 20
1.224745E+002
 30
-1.414213E+002
 11
-1.224745E+002
 21
1.224745E+002
 31
-1.000000E+002
 12
-1.000000E+002
 22
1.000000E+002
 32
-1.414213E+002
 13
-1.000000E+002
 23
1.000000E+002
 33
-1.414213E+002
  0
3DFACE
  8
Layer
 10
-1.000000E+002
 20
1.000000E+002
 30
-1.414213E+002
 11
-1.224745E+002
 21
1.224745E+002
 31
-1.000000E+002
 12
-1.500000E+002
 22
8.660254E+001
 32
-1.000000E+002
 13
-1.500000E+002
 23
8.660254E+001
 33
-1.000000E+002
  0
3DFACE
  8
Layer
 10
-1.000000E+002
 20
1.000000E+002
 30
-1.414213E+002
 11
-1.500000E+002
 21
8.660254E+001
 31
-1.000000E+002
 12
-1.224745E+002
 22
7.071067E+001
 32
-1.414213E+002
 13
-1.224745E+002
 23
7.071067E+001
 33
-1.414213E+002
  0
3DFACE
  8
Layer
 10
-1.224745E+002
 20
7.071067E+001
 30
-1.414213E+002
 11
-1.500000E+002
 21
8.660254E+001
 31
-1.000000E+002
 12
-1.673033E+002
 22
4.482877E+001
 32
-1.000000E+002
 13
-1.673033E+002
 23
4.482877E+001
 33
-1.000000E+002
  0
3DFACE
  8
Layer
 10
-1.224745E+002
 20
7.071067E+001
 30
-1.414213E+002
 11
-1.673033E+002
 21
4.482877E+001
 31
-1.000000E+002
 12
-1.366026E+002
 22
3.660254E+001
 32
-1.414213E+002
 13
-1.366026E+002
 23
3.660254E+001
 33
-1.414213E+002
  0
3DFACE
  8
Layer
 10
-1.366026E+002
 20
3.660254E+001
 30
-1.414213E+002
 11
-1.673033E+002
 21
4.482877E+001
 31
-1.000000E+002
 12
-1.732051E+002
 22
0.000000E+000
 32
-1.000000E+002
 13
-1.732051E+002
 23
0.000000E+000
 33
-1.000000E+002
  0
3DFACE
  8
Layer
 10
-1.366026E+002
 20
3.660254E+001
 30
-1.414213E+002
 11
-1.732051E+002
 21
0.000000E+000
 31
-1.000000E+002
 12
-1.414213E+002
 22
0.000000E+000
 32
-1.414213E+002
 13
-1.414213E+002
 23
0.000000E+000
 33
-1.414213E+002
  0
3DFACE
  8
Layer
 10
-1.414213E+002
 20
0.000000E+000
 30
-1.414213E+002
 11
-1.732051E+002
 21
0.000000E+000
 31
-1.000000E+002
 12
-1.673033E+002
 22
-4.482877E+001
 32
-1.000000E+002
 13
-1.673033E+002
 23
-4.482877E+001
 33
-1.000000E+002
  0
3DFACE
  8
Layer
 10
-1.414213E+002
 20
0.000000E+000
 30
-1.414213E+002
 11
-1.673033E+002
 21
-4.482877E+001
 31
-1.000000E+002
 12
-1.366026E+002
 22
-3.660254E+001
 32
-1.414213E+002
 13
-1.366026E+002
 23
-3.660254E+001
 33
-1.414213E+002
  0
3DFACE
  8
Layer
 10
-1.366026E+002
 20
-3.660254E+001
 30
-1.414213E+002
 11
-1.673033E+002
 21
-4.482877E+001
 31
-1.000000E+002
 12
-1.500000E+002
 22
-8.660254E+001
 32
-1.000000E+002
 13
-1.500000E+002
 23
-8.660254E+001
 33
-1.000000E+002
  0
3DFACE
  8
Layer
 10
-1.366026E+002
 20
-3.660254E+001
 30
-1.414213E+002
 11
-1.500000E+002
 21
-8.660254E+001
 31
-1.000000E+002
 12
-1.224745E+002
 22
-7.071067E+001
 32
-1.414213E+002
 13
-1.224745E+002
 23
-7.071067E+001
 33
-1.414213E+002
  0
3DFACE
  8
Layer
 10
-1.224745E+002
 20
-7.071067E+001
 30
-1.414213E+002
 11
-1.500000E+002
 21
-8.660254E+001
 31
-1.000000E+002
 12
-1.224745E+002
 22
-1.224745E+002
 32
-1.000000E+002
 13
-1.224745E+002
 23
-1.224745E+002
 33
-1.000000E+002
  0
3DFACE
  8
Layer
 10
-1.224745E+002
 20
-7.071067E+001
 30
-1.414213E+002
 11
-1.224745E+002
 21
-1.224745E+002
 31
-1.000000E+002
 12
-1.000000E+002
 22
-1.000000E+002
 32
-1.414213E+002
 13
-1.000000E+002
 23
-1.000000E+002
 33
-1.414213E+002
  0
3DFACE
  8
Layer
 10
-1.000000E+002
 20
-1.000000E+002
 30
-1.414213E+002
 11
-1.224745E+002
 21
-1.224745E+002
 31
-1.000000E+002
 12
-8.660254E+001
 22
-1.500000E+002
 32
-1.000000E+002
 13
-8.660254E+001
 23
-1.500000E+002
 33
-1.000000E+002
  0
3DFACE
  8
Layer
 10
-1.000000E+002
 20
-1.000000E+002
 30
-1.414213E+002
 11
-8.660254E+001
 21
-1.500000E+002
 31
-1.000000E+002
 12
-7.071067E+001
 22
-1.224745E+002
 32
-1.414213E+002
 13
-7.071067E+001
 23
-1.224745E+002
 33
-1.414213E+002
  0
3DFACE
  8
Layer
 10
-7.071067E+001
 20
-1.224745E+002
 30
-1.414213E+002
 11
-8.660254E+001
 21
-1.500000E+002
 31
-1.000000E+002
 12
-4.482877E+001
 22
-1.673033E+002
 32
-1.000000E+002
 13
-4.482877E+001
 23
-1.673033E+002
 33
-1.000000E+002
  0
3DFACE
  8
Layer
 10
-7.071067E+001
 20
-1.224745E+002
 30
-1.414213E+002
 11
-4.482877E+001
 21
-1.673033E+002
 31
-1.000000E+002
 12
-3.660254E+001
 22
-1.366026E+002
 32
-1.414213E+002
 13
-3.660254E+001
 23
-1.366026E+002
 33
-1.414213E+002
  0
3DFACE
  8
Layer
 10
-3.660254E+001
 20
-1.366026E+002
 30
-1.414213E+002
 11
-4.482877E+001
 21
-1.673033E+002
 31
-1.000000E+002
 12
0.000000E+000
 22
-1.732051E+002
 32
-1.000000E+002
 13
0.000000E+000
 23
-1.732051E+002
 33
-1.000000E+002
  0
3DFACE
  8
Layer
 10
-3.660254E+001
 20
-1.366026E+002
 30
-1.414213E+002
 11
0.000000E+000
 21
-1.732051E+002
 31
-1.000000E+002
 12
0.000000E+000
 22
-1.414213E+002
 32
-1.414213E+002
 13
0.000000E+000
 23
-1.414213E+002
 33
-1.414213E+002
  0
3DFACE
  8
Layer
 10
0.000000E+000
 20
-1.414213E+002
 30
-1.414213E+002
 11
0.000000E+000
 21
-1.732051E+002
 31
-1.000000E+002
 12
4.482877E+001
 22
-1.673033E+002
 32
-1.000000E+002
 13
4.482877E+001
 23
-1.673033E+002
 33
-1.000000E+002
  0
3DFACE
  8
Layer
 10
0.000000E+000
 20
-1.414213E+002
 30
-1.414213E+002
 11
4.482877E+001
 21
-1.673033E+002
 31
-1.000000E+002
 12
3.660254E+001
 22
-1.366026E+002
 32
-1.414213E+002
 13
3.660254E+001
 23
-1.366026E+002
 33
-1.414213E+002
  0
3DFACE
  8
Layer
 10
3.660254E+001
 20
-1.366026E+002
 30
-1.414213E+002
 11
4.482877E+001
 21
-1.673033E+002
 31
-1.000000E+002
 12
8.660254E+001
 22
-1.500000E+002
 32
-1.000000E+002
 13
8.660254E+001
 23
-1.500000E+002
 33
-1.000000E+002
  0
3DFACE
  8
Layer
 10
3.660254E+001
 20
-1.366026E+002
 30
-1.414213E+002
 11
8.660254E+001
 21
-1.500000E+002
 31
-1.000000E+002
 12
7.071067E+001
 22
-1.224745E+002
 32
-1.414213E+002
 13
7.071067E+001
 23
-1.224745E+002
 33
-1.414213E+002
  0
3DFACE
  8
Layer
 10
7.071067E+001
 20
-1.224745E+002
 30
-1.414213E+002
 11
8.660254E+001
 21
-1.500000E+002
 31
-1.000000E+002
 12
1.224745E+002
 22
-1.224745E+002
 32
-1.000000E+002
 13
1.224745E+002
 23
-1.224745E+002
 33
-1.000000E+002
  0
3DFACE
  8
Layer
 10
7.071067E+001
 20
-1.224745E+002
 30
-1.414213E+002
 11
1.224745E+002
 21
-1.224745E+002
 31
-1.000000E+002
 12
1.000000E+002
 22
-1.000000E+002
 32
-1.414213E+002
 13
1.000000E+002
 23
-1.000000E+002
 33
-1.414213E+002
  0
3DFACE
  8
Layer
 10
1.000000E+002
 20
-1.000000E+002
 30
-1.414213E+002
 11
1.224745E+002
 21
-1.224745E+002
 31
-1.000000E+002
 12
1.500000E+002
 22
-8.660254E+001
 32
-1.000000E+002
 13
1.500000E+002
 23
-8.660254E+001
 33
-1.000000E+002
  0
3DFACE
  8
Layer
 10
1.000000E+002
 20
-1.000000E+002
 30
-1.414213E+002
 11
1.500000E+002
 21
-8.660254E+001
 31
-1.000000E+002
 12
1.224745E+002
 22
-7.071067E+001
 32
-1.414213E+002
 13
1.224745E+002
 23
-7.071067E+001
 33
-1.414213E+002
  0
3DFACE
  8
Layer
 10
1.224745E+002
 20
-7.071067E+001
 30
-1.414213E+002
 11
1.500000E+002
 21
-8.660254E+001
 31
-1.000000E+002
 12
1.673033E+002
 22
-4.482877E+001
 32
-1.000000E+002
 13
1.673033E+002
 23
-4.482877E+001
 33
-1.000000E+002
  0
3DFACE
  8
Layer
 10
1.224745E+002
 20
-7.071067E+001
 30
-1.414213E+002
 11
1.673033E+002
 21
-4.482877E+001
 31
-1.000000E+002
 12
1.366026E+002
 22
-3.660254E+001
 32
-1.414213E+002
 13
1.366026E+002
 23
-3.660254E+001
 33
-1.414213E+002
  0
3DFACE
  8
Layer
 10
1.366026E+002
 20
-3.660254E+001
 30
-1.414213E+002
 11
1.673033E+002
 21
-4.482877E+001
 31
-1.000000E+002
 12
1.732051E+002
 22
0.000000E+000
 32
-1.000000E+002
 13
1.732051E+002
 23
0.000000E+000
 33
-1.000000E+002
  0
3DFACE
  8
Layer
 10
1.366026E+002
 20
-3.660254E+001
 30
-1.414213E+002
 11
1.732051E+002
 21
0.000000E+000
 31
-1.000000E+002
 12
1.414213E+002
 22
0.000000E+000
 32
-1.414213E+002
 13
1.414213E+002
 23
0.000000E+000
 33
-1.414213E+002
  0
3DFACE
  8
Layer
 10
1.000000E+002
 20
0.000000E+000
 30
-1.732051E+002
 11
1.414213E+002
 21
0.000000E+000
 31
-1.414213E+002
 12
1.366026E+002
 22
3.660254E+001
 32
-1.414213E+002
 13
1.366026E+002
 23
3.660254E+001
 33
-1.414213E+002
  0
3DFACE
  8
Layer
 10
1.000000E+002
 20
0.000000E+000
 30
-1.732051E+002
 11
1.366026E+002
 21
3.660254E+001
 31
-1.414213E+002
 12
9.659258E+001
 22
2.588190E+001
 32
-1.732051E+002
 13
9.659258E+001
 23
2.588190E+001
 33
-1.732051E+002
  0
3DFACE
  8
Layer
 10
9.659258E+001
 20
2.588190E+001
 30
-1.732051E+002
 11
1.366026E+002
 21
3.660254E+001
 31
-1.414213E+002
 12
1.224745E+002
 22
7.071067E+001
 32
-1.414213E+002
 13
1.224745E+002
 23
7.071067E+001
 33
-1.414213E+002
  0
3DFACE
  8
Layer
 10
9.659258E+001
 20
2.588190E+001
 30
-1.732051E+002
 11
1.224745E+002
 21
7.071067E+001
 31
-1.414213E+002
 12
8.660254E+001
 22
5.000000E+001
 32
-1.732051E+002
 13
8.660254E+001
 23
5.000000E+001
 33
-1.732051E+002
  0
3DFACE
  8
Layer
 10
8.660254E+001
 20
5.000000E+001
 30
-1.732051E+002
 11
1.224745E+002
 21
7.071067E+001
 31
-1.414213E+002
 12
1.000000E+002
 22
1.000000E+002
 32
-1.414213E+002
 13
1.000000E+002
 23
1.000000E+002
 33
-1.414213E+002
  0
3DFACE
  8
Layer
 10
8.660254E+001
 20
5.000000E+001
 30
-1.732051E+002
 11
1.000000E+002
 21
1.000000E+002
 31
-1.414213E+002
 12
7.071067E+001
 22
7.071067E+001
 32
-1.732051E+002
 13
7.071067E+001
 23
7.071067E+001
 33
-1.732051E+002
  0
3DFACE
  8
Layer
 10
7.071067E+001
 20
7.071067E+001
 30
-1.732051E+002
 11
1.000000E+002
 21
1.000000E+002
 31
-1.414213E+002
 12
7.071067E+001
 22
1.224745E+002
 32
-1.414213E+002
 13
7.071067E+001
 23
1.224745E+002
 33
-1.414213E+002
  0
3DFACE
  8
Layer
 10
7.071067E+001
 20
7.071067E+001
 30
-1.732051E+002
 11
7.071067E+001
 21
1.224745E+002
 31
-1.414213E+002
 12
5.000000E+001
 22
8.660254E+001
 32
-1.732051E+002
 13
5.000000E+001
 23
8.660254E+001
 33
-1.732051E+002
  0
3DFACE
  8
Layer
 10
5.000000E+001
 20
8.660254E+001
 30
-1.732051E+002
 11
7.071067E+001
 21
1.224745E+002
 31
-1.414213E+002
 12
3.660254E+001
 22
1.366026E+002
 32
-1.414213E+002
 13
3.660254E+001
 23
1.366026E+002
 33
-1.414213E+002
  0
3DFACE
  8
Layer
 10
5.000000E+001
 20
8.660254E+001
 30
-1.732051E+002
 11
3.660254E+001
 21
1.366026E+002
 31
-1.414213E+002
 12
2.588190E+001
 22
9.659258E+001
 32
-1.732051E+002
 13
2.588190E+001
 23
9.659258E+001
 33
-1.732051E+002
  0
3DFACE
  8
Layer
 10
2.588190E+001
 20
9.659258E+001
 30
-1.732051E+002
 11
3.660254E+001
 21
1.366026E+002
 31
-1.414213E+002
 12
0.000000E+000
 22
1.414213E+002
 32
-1.414213E+002
 13
0.000000E+000
 23
1.414213E+002
 33
-1.414213E+002
  0
3DFACE
  8
Layer
 10
2.588190E+001
 20
9.659258E+001
 30
-1.732051E+002
 11
0.000000E+000
 21
1.414213E+002
 31
-1.414213E+002
 12
0.000000E+000
 22
1.000000E+002
 32
-1.732051E+002
 13
0.000000E+000
 23
1.000000E+002
 33
-1.732051E+002
  0
3DFACE
  8
Layer
 10
0.000000E+000
 20
1.000000E+002
 30
-1.732051E+002
 11
0.000000E+000
 21
1.414213E+002
 31
-1.414213E+002
 12
-3.660254E+001
 22
1.366026E+002
 32
-1.414213E+002
 13
-3.660254E+001
 23
1.366026E+002
 33
-1.414213E+002
  0
3DFACE
  8
Layer
 10
0.000000E+000
 20
1.000000E+002
 30
-1.732051E+002
 11
-3.660254E+001
 21
1.366026E+002
 31
-1.414213E+002
 12
-2.588190E+001
 22
9.659258E+001
 32
-1.732051E+002
 13
-2.588190E+001
 23
9.659258E+001
 33
-1.732051E+002
  0
3DFACE
  8
Layer
 10
-2.588190E+001
 20
9.659258E+001
 30
-1.732051E+002
 11
-3.660254E+001
 21
1.366026E+002
 31
-1.414213E+002
 12
-7.071067E+001
 22
1.224745E+002
 32
-1.414213E+002
 13
-7.071067E+001
 23
1.224745E+002
 33
-1.414213E+002
  0
3DFACE
  8
Layer
 10
-2.588190E+001
 20
9.659258E+001
 30
-1.732051E+002
 11
-7.071067E+001
 21
1.224745E+002
 31
-1.414213E+002
 12
-5.000000E+001
 22
8.660254E+001
 32
-1.732051E+002
 13
-5.000000E+001
 23
8.660254E+001
 33
-1.732051E+002
  0
3DFACE
  8
Layer
 10
-5.000000E+001
 20
8.660254E+001
 30
-1.732051E+002
 11
-7.071067E+001
 21
1.224745E+002
 31
-1.414213E+002
 12
-1.000000E+002
 22
1.000000E+002
 32
-1.414213E+002
 13
-1.000000E+002
 23
1.000000E+002
 33
-1.414213E+002
  0
3DFACE
  8
Layer
 10
-5.000000E+001
 20
8.660254E+001
 30
-1.732051E+002
 11
-1.000000E+002
 21
1.000000E+002
 31
-1.414213E+002
 12
-7.071067E+001
 22
7.071067E+001
 32
-1.732051E+002
 13
-7.071067E+001
 23
7.071067E+001
 33
-1.732051E+002
  0
3DFACE
  8
Layer
 10
-7.071067E+001
 20
7.071067E+001
 30
-1.732051E+002
 11
-1.000000E+002
 21
1.000000E+002
 31
-1.414213E+002
 12
-1.224745E+002
 22
7.071067E+001
 32
-1.414213E+002
 13
-1.224745E+002
 23
7.071067E+001
 33
-1.414213E+002
  0
3DFACE
  8
Layer
 10
-7.071067E+001
 20
7.071067E+001
 30
-1.732051E+002
 11
-1.224745E+002
 21
7.071067E+001
 31
-1.414213E+002
 12
-8.660254E+001
 22
5.000000E+001
 32
-1.732051E+002
 13
-8.660254E+001
 23
5.000000E+001
 33
-1.732051E+002
  0
3DFACE
  8
Layer
 10
-8.660254E+001
 20
5.000000E+001
 30
-1.732051E+002
 11
-1.224745E+002
 21
7.071067E+001
 31
-1.414213E+002
 12
-1.366026E+002
 22
3.660254E+001
 32
-1.414213E+002
 13
-1.366026E+002
 23
3.660254E+001
 33
-1.414213E+002
  0
3DFACE
  8
Layer
 10
-8.660254E+001
 20
5.000000E+001
 30
-1.732051E+002
 11
-1.366026E+002
 21
3.660254E+001
 31
-1.414213E+002
 12
-9.659258E+001
 22
2.588190E+001
 32
-1.732051E+002
 13
-9.659258E+001
 23
2.588190E+001
 33
-1.732051E+002
  0
3DFACE
  8
Layer
 10
-9.659258E+001
 20
2.588190E+001
 30
-1.732051E+002
 11
-1.366026E+002
 21
3.660254E+001
 31
-1.414213E+002
 12
-1.414213E+002
 22
0.000000E+000
 32
-1.414213E+002
 13
-1.414213E+002
 23
0.000000E+000
 33
-1.414213E+002
  0
3DFACE
  8
Layer
 10
-9.659258E+001
 20
2.588190E+001
 30
-1.732051E+002
 11
-1.414213E+002
 21
0.000000E+000
 31
-1.414213E+002
 12
-1.000000E+002
 22
0.000000E+000
 32
-1.732051E+002
 13
-1.000000E+002
 23
0.000000E+000
 33
-1.732051E+002
  0
3DFACE
  8
Layer
 10
-1.000000E+002
 20
0.000000E+000
 30
-1.732051E+002
 11
-1.414213E+002
 21
0.000000E+000
 31
-1.414213E+002
 12
-1.366026E+002
 22
-3.660254E+001
 32
-1.414213E+002
 13
-1.366026E+002
 23
-3.660254E+001
 33
-1.414213E+002
  0
3DFACE
  8
Layer
 10
-1.000000E+002
 20
0.000000E+000
 30
-1.732051E+002
 11
-1.366026E+002
 21
-3.660254E+001
 31
-1.414213E+002
 12
-9.659258E+001
 22
-2.588190E+001
 32
-1.732051E+002
 13
-9.659258E+001
 23
-2.588190E+001
 33
-1.732051E+002
  0
3DFACE
  8
Layer
 10
-9.659258E+001
 20
-2.588190E+001
 30
-1.732051E+002
 11
-1.366026E+002
 21
-3.660254E+001
 31
-1.414213E+002
 12
-1.224745E+002
 22
-7.071067E+001
 32
-1.414213E+002
 13
-1.224745E+002
 23
-7.071067E+001
 33
-1.414213E+002
  0
3DFACE
  8
Layer
 10
-9.659258E+001
 20
-2.588190E+001
 30
-1.732051E+002
 11
-1.224745E+002
 21
-7.071067E+001
 31
-1.414213E+002
 12
-8.660254E+001
 22
-5.000000E+001
 32
-1.732051E+002
 13
-8.660254E+001
 23
-5.000000E+001
 33
-1.732051E+002
  0
3DFACE
  8
Layer
 10
-8.660254E+001
 20
-5.000000E+001
 30
-1.732051E+002
 11
-1.224745E+002
 21
-7.071067E+001
 31
-1.414213E+002
 12
-1.000000E+002
 22
-1.000000E+002
 32
-1.414213E+002
 13
-1.000000E+002
 23
-1.000000E+002
 33
-1.414213E+002
  0
3DFACE
  8
Layer
 10
-8.660254E+001
 20
-5.000000E+001
 30
-1.732051E+002
 11
-1.000000E+002
 21
-1.000000E+002
 31
-1.414213E+002
 12
-7.071067E+001
 22
-7.071067E+001
 32
-1.732051E+002
 13
-7.071067E+001
 23
-7.071067E+001
 33
-1.732051E+002
  0
3DFACE
  8
Layer
 10
-7.071067E+001
 20
-7.071067E+001
 30
-1.732051E+002
 11
-1.000000E+002
 21
-1.000000E+002
 31
-1.414213E+002
 12
-7.071067E+001
 22
-1.224745E+002
 32
-1.414213E+002
 13
-7.071067E+001
 23
-1.224745E+002
 33
-1.414213E+002
  0
3DFACE
  8
Layer
 10
-7.071067E+001
 20
-7.071067E+001
 30
-1.732051E+002
 11
-7.071067E+001
 21
-1.224745E+002
 31
-1.414213E+002
 12
-5.000000E+001
 22
-8.660254E+001
 32
-1.732051E+002
 13
-5.000000E+001
 23
-8.660254E+001
 33
-1.732051E+002
  0
3DFACE
  8
Layer
 10
-5.000000E+001
 20
-8.660254E+001
 30
-1.732051E+002
 11
-7.071067E+001
 21
-1.224745E+002
 31
-1.414213E+002
 12
-3.660254E+001
 22
-1.366026E+002
 32
-1.414213E+002
 13
-3.660254E+001
 23
-1.366026E+002
 33
-1.414213E+002
  0
3DFACE
  8
Layer
 10
-5.000000E+001
 20
-8.660254E+001
 30
-1.732051E+002
 11
-3.660254E+001
 21
-1.366026E+002
 31
-1.414213E+002
 12
-2.588190E+001
 22
-9.659258E+001
 32
-1.732051E+002
 13
-2.588190E+001
 23
-9.659258E+001
 33
-1.732051E+002
  0
3DFACE
  8
Layer
 10
-2.588190E+001
 20
-9.659258E+001
 30
-1.732051E+002
 11
-3.660254E+001
 21
-1.366026E+002
 31
-1.414213E+002
 12
0.000000E+000
 22
-1.414213E+002
 32
-1.414213E+002
 13
0.000000E+000
 23
-1.414213E+002
 33
-1.414213E+002
  0
3DFACE
  8
Layer
 10
-2.588190E+001
 20
-9.659258E+001
 30
-1.732051E+002
 11
0.000000E+000
 21
-1.414213E+002
 31
-1.414213E+002
 12
0.000000E+000
 22
-1.000000E+002
 32
-1.732051E+002
 13
0.000000E+000
 23
-1.000000E+002
 33
-1.732051E+002
  0
3DFACE
  8
Layer
 10
0.000000E+000
 20
-1.000000E+002
 30
-1.732051E+002
 11
0.000000E+000
 21
-1.414213E+002
 31
-1.414213E+002
 12
3.660254E+001
 22
-1.366026E+002
 32
-1.414213E+002
 13
3.660254E+001
 23
-1.366026E+002
 33
-1.414213E+002
  0
3DFACE
  8
Layer
 10
0.000000E+000
 20
-1.000000E+002
 30
-1.732051E+002
 11
3.660254E+001
 21
-1.366026E+002
 31
-1.414213E+002
 12
2.588190E+001
 22
-9.659258E+001
 32
-1.732051E+002
 13
2.588190E+001
 23
-9.659258E+001
 33
-1.732051E+002
  0
3DFACE
  8
Layer
 10
2.588190E+001
 20
-9.659258E+001
 30
-1.732051E+002
 11
3.660254E+001
 21
-1.366026E+002
 31
-1.414213E+002
 12
7.071067E+001
 22
-1.224745E+002
 32
-1.414213E+002
 13
7.071067E+001
 23
-1.224745E+002
 33
-1.414213E+002
  0
3DFACE
  8
Layer
 10
2.588190E+001
 20
-9.659258E+001
 30
-1.732051E+002
 11
7.071067E+001
 21
-1.224745E+002
 31
-1.414213E+002
 12
5.000000E+001
 22
-8.660254E+001
 32
-1.732051E+002
 13
5.000000E+001
 23
-8.660254E+001
 33
-1.732051E+002
  0
3DFACE
  8
Layer
 10
5.000000E+001
 20
-8.660254E+001
 30
-1.732051E+002
 11
7.071067E+001
 21
-1.224745E+002
 31
-1.414213E+002
 12
1.000000E+002
 22
-1.000000E+002
 32
-1.414213E+002
 13
1.000000E+002
 23
-1.000000E+002
 33
-1.414213E+002
  0
3DFACE
  8
Layer
 10
5.000000E+001
 20
-8.660254E+001
 30
-1.732051E+002
 11
1.000000E+002
 21
-1.000000E+002
 31
-1.414213E+002
 12
7.071067E+001
 22
-7.071067E+001
 32
-1.732051E+002
 13
7.071067E+001
 23
-7.071067E+001
 33
-1.732051E+002
  0
3DFACE
  8
Layer
 10
7.071067E+001
 20
-7.071067E+001
 30
-1.732051E+002
 11
1.000000E+002
 21
-1.000000E+002
 31
-1.414213E+002
 12
1.224745E+002
 22
-7.071067E+001
 32
-1.414213E+002
 13
1.224745E+002
 23
-7.071067E+001
 33
-1.414213E+002
  0
3DFACE
  8
Layer
 10
7.071067E+001
 20
-7.071067E+001
 30
-1.732051E+002
 11
1.224745E+002
 21
-7.071067E+001
 31
-1.414213E+002
 12
8.660254E+001
 22
-5.000000E+001
 32
-1.732051E+002
 13
8.660254E+001
 23
-5.000000E+001
 33
-1.732051E+002
  0
3DFACE
  8
Layer
 10
8.660254E+001
 20
-5.000000E+001
 30
-1.732051E+002
 11
1.224745E+002
 21
-7.071067E+001
 31
-1.414213E+002
 12
1.366026E+002
 22
-3.660254E+001
 32
-1.414213E+002
 13
1.366026E+002
 23
-3.660254E+001
 33
-1.414213E+002
  0
3DFACE
  8
Layer
 10
8.660254E+001
 20
-5.000000E+001
 30
-1.732051E+002
 11
1.366026E+002
 21
-3.660254E+001
 31
-1.414213E+002
 12
9.659258E+001
 22
-2.588190E+001
 32
-1.732051E+002
 13
9.659258E+001
 23
-2.588190E+001
 33
-1.732051E+002
  0
3DFACE
  8
Layer
 10
9.659258E+001
 20
-2.588190E+001
 30
-1.732051E+002
 11
1.366026E+002
 21
-3.660254E+001
 31
-1.414213E+002
 12
1.414213E+002
 22
0.000000E+000
 32
-1.414213E+002
 13
1.414213E+002
 23
0.000000E+000
 33
-1.414213E+002
  0
3DFACE
  8
Layer
 10
9.659258E+001
 20
-2.588190E+001
 30
-1.732051E+002
 11
1.414213E+002
 21
0.000000E+000
 31
-1.414213E+002
 12
1.000000E+002
 22
0.000000E+000
 32
-1.732051E+002
 13
1.000000E+002
 23
0.000000E+000
 33
-1.732051E+002
  0
3DFACE
  8
Layer
 10
5.176381E+001
 20
0.000000E+000
 30
-1.931852E+002
 11
1.000000E+002
 21
0.000000E+000
 31
-1.732051E+002
 12
9.659258E+001
 22
2.588190E+001
 32
-1.732051E+002
 13
9.659258E+001
 23
2.588190E+001
 33
-1.732051E+002
  0
3DFACE
  8
Layer
 10
5.176381E+001
 20
0.000000E+000
 30
-1.931852E+002
 11
9.659258E+001
 21
2.588190E+001
 31
-1.732051E+002
 12
5.000000E+001
 22
1.339746E+001
 32
-1.931852E+002
 13
5.000000E+001
 23
1.339746E+001
 33
-1.931852E+002
  0
3DFACE
  8
Layer
 10
5.000000E+001
 20
1.339746E+001
 30
-1.931852E+002
 11
9.659258E+001
 21
2.588190E+001
 31
-1.732051E+002
 12
8.660254E+001
 22
5.000000E+001
 32
-1.732051E+002
 13
8.660254E+001
 23
5.000000E+001
 33
-1.732051E+002
  0
3DFACE
  8
Layer
 10
5.000000E+001
 20
1.339746E+001
 30
-1.931852E+002
 11
8.660254E+001
 21
5.000000E+001
 31
-1.732051E+002
 12
4.482877E+001
 22
2.588190E+001
 32
-1.931852E+002
 13
4.482877E+001
 23
2.588190E+001
 33
-1.931852E+002
  0
3DFACE
  8
Layer
 10
4.482877E+001
 20
2.588190E+001
 30
-1.931852E+002
 11
8.660254E+001
 21
5.000000E+001
 31
-1.732051E+002
 12
7.071067E+001
 22
7.071067E+001
 32
-1.732051E+002
 13
7.071067E+001
 23
7.071067E+001
 33
-1.732051E+002
  0
3DFACE
  8
Layer
 10
4.482877E+001
 20
2.588190E+001
 30
-1.931852E+002
 11
7.071067E+001
 21
7.071067E+001
 31
-1.732051E+002
 12
3.660254E+001
 22
3.660254E+001
 32
-1.931852E+002
 13
3.660254E+001
 23
3.660254E+001
 33
-1.931852E+002
  0
3DFACE
  8
Layer
 10
3.660254E+001
 20
3.660254E+001
 30
-1.931852E+002
 11
7.071067E+001
 21
7.071067E+001
 31
-1.732051E+002
 12
5.000000E+001
 22
8.660254E+001
 32
-1.732051E+002
 13
5.000000E+001
 23
8.660254E+001
 33
-1.732051E+002
  0
3DFACE
  8
Layer
 10
3.660254E+001
 20
3.660254E+001
 30
-1.931852E+002
 11
5.000000E+001
 21
8.660254E+001
 31
-1.732051E+002
 12
2.588190E+001
 22
4.482877E+001
 32
-1.931852E+002
 13
2.588190E+001
 23
4.482877E+001
 33
-1.931852E+002
  0
3DFACE
  8
Layer
 10
2.588190E+001
 20
4.482877E+001
 30
-1.931852E+002
 11
5.000000E+001
 21
8.660254E+001
 31
-1.732051E+002
 12
2.588190E+001
 22
9.659258E+001
 32
-1.732051E+002
 13
2.588190E+001
 23
9.659258E+001
 33
-1.732051E+002
  0
3DFACE
  8
Layer
 10
2.588190E+001
 20
4.482877E+001
 30
-1.931852E+002
 11
2.588190E+001
 21
9.659258E+001
 31
-1.732051E+002
 12
1.339746E+001
 22
5.000000E+001
 32
-1.931852E+002
 13
1.339746E+001
 23
5.000000E+001
 33
-1.931852E+002
  0
3DFACE
  8
Layer
 10
1.339746E+001
 20
5.000000E+001
 30
-1.931852E+002
 11
2.588190E+001
 21
9.659258E+001
 31
-1.732051E+002
 12
0.000000E+000
 22
1.000000E+002
 32
-1.732051E+002
 13
0.000000E+000
 23
1.000000E+002
 33
-1.732051E+002
  0
3DFACE
  8
Layer
 10
1.339746E+001
 20
5.000000E+001
 30
-1.931852E+002
 11
0.000000E+000
 21
1.000000E+002
 31
-1.732051E+002
 12
0.000000E+000
 22
5.176381E+001
 32
-1.931852E+002
 13
0.000000E+000
 23
5.176381E+001
 33
-1.931852E+002
  0
3DFACE
  8
Layer
 10
0.000000E+000
 20
5.176381E+001
 30
-1.931852E+002
 11
0.000000E+000
 21
1.000000E+002
 31
-1.732051E+002
 12
-2.588190E+001
 22
9.659258E+001
 32
-1.732051E+002
 13
-2.588190E+001
 23
9.659258E+001
 33
-1.732051E+002
  0
3DFACE
  8
Layer
 10
0.000000E+000
 20
5.176381E+001
 30
-1.931852E+002
 11
-2.588190E+001
 21
9.659258E+001
 31
-1.732051E+002
 12
-1.339746E+001
 22
5.000000E+001
 32
-1.931852E+002
 13
-1.339746E+001
 23
5.000000E+001
 33
-1.931852E+002
  0
3DFACE
  8
Layer
 10
-1.339746E+001
 20
5.000000E+001
 30
-1.931852E+002
 11
-2.588190E+001
 21
9.659258E+001
 31
-1.732051E+002
 12
-5.000000E+001
 22
8.660254E+001
 32
-1.732051E+002
 13
-5.000000E+001
 23
8.660254E+001
 33
-1.732051E+002
  0
3DFACE
  8
Layer
 10
-1.339746E+001
 20
5.000000E+001
 30
-1.931852E+002
 11
-5.000000E+001
 21
8.660254E+001
 31
-1.732051E+002
 12
-2.588190E+001
 22
4.482877E+001
 32
-1.931852E+002
 13
-2.588190E+001
 23
4.482877E+001
 33
-1.931852E+002
  0
3DFACE
  8
Layer
 10
-2.588190E+001
 20
4.482877E+001
 30
-1.931852E+002
 11
-5.000000E+001
 21
8.660254E+001
 31
-1.732051E+002
 12
-7.071067E+001
 22
7.071067E+001
 32
-1.732051E+002
 13
-7.071067E+001
 23
7.071067E+001
 33
-1.732051E+002
  0
3DFACE
  8
Layer
 10
-2.588190E+001
 20
4.482877E+001
 30
-1.931852E+002
 11
-7.071067E+001
 21
7.071067E+001
 31
-1.732051E+002
 12
-3.660254E+001
 22
3.660254E+001
 32
-1.931852E+002
 13
-3.660254E+001
 23
3.660254E+001
 33
-1.931852E+002
  0
3DFACE
  8
Layer
 10
-3.660254E+001
 20
3.660254E+001
 30
-1.931852E+002
 11
-7.071067E+001
 21
7.071067E+001
 31
-1.732051E+002
 12
-8.660254E+001
 22
5.000000E+001
 32
-1.732051E+002
 13
-8.660254E+001
 23
5.000000E+001
 33
-1.732051E+002
  0
3DFACE
  8
Layer
 10
-3.660254E+001
 20
3.660254E+001
 30
-1.931852E+002
 11
-8.660254E+001
 21
5.000000E+001
 31
-1.732051E+002
 12
-4.482877E+001
 22
2.588190E+001
 32
-1.931852E+002
 13
-4.482877E+001
 23
2.588190E+001
 33
-1.931852E+002
  0
3DFACE
  8
Layer
 10
-4.482877E+001
 20
2.588190E+001
 30
-1.931852E+002
 11
-8.660254E+001
 21
5.000000E+001
 31
-1.732051E+002
 12
-9.659258E+001
 22
2.588190E+001
 32
-1.732051E+002
 13
-9.659258E+001
 23
2.588190E+001
 33
-1.732051E+002
  0
3DFACE
  8
Layer
 10
-4.482877E+001
 20
2.588190E+001
 30
-1.931852E+002
 11
-9.659258E+001
 21
2.588190E+001
 31
-1.732051E+002
 12
-5.000000E+001
 22
1.339746E+001
 32
-1.931852E+002
 13
-5.000000E+001
 23
1.339746E+001
 33
-1.931852E+002
  0
3DFACE
  8
Layer
 10
-5.000000E+001
 20
1.339746E+001
 30
-1.931852E+002
 11
-9.659258E+001
 21
2.588190E+001
 31
-1.732051E+002
 12
-1.000000E+002
 22
0.000000E+000
 32
-1.732051E+002
 13
-1.000000E+002
 23
0.000000E+000
 33
-1.732051E+002
  0
3DFACE
  8
Layer
 10
-5.000000E+001
 20
1.339746E+001
 30
-1.931852E+002
 11
-1.000000E+002
 21
0.000000E+000
 31
-1.732051E+002
 12
-5.176381E+001
 22
0.000000E+000
 32
-1.931852E+002
 13
-5.176381E+001
 23
0.000000E+000
 33
-1.931852E+002
  0
3DFACE
  8
Layer
 10
-5.176381E+001
 20
0.000000E+000
 30
-1.931852E+002
 11
-1.000000E+002
 21
0.000000E+000
 31
-1.732051E+002
 12
-9.659258E+001
 22
-2.588190E+001
 32
-1.732051E+002
 13
-9.659258E+001
 23
-2.588190E+001
 33
-1.732051E+002
  0
3DFACE
  8
Layer
 10
-5.176381E+001
 20
0.000000E+000
 30
-1.931852E+002
 11
-9.659258E+001
 21
-2.588190E+001
 31
-1.732051E+002
 12
-5.000000E+001
 22
-1.339746E+001
 32
-1.931852E+002
 13
-5.000000E+001
 23
-1.339746E+001
 33
-1.931852E+002
  0
3DFACE
  8
Layer
 10
-5.000000E+001
 20
-1.339746E+001
 30
-1.931852E+002
 11
-9.659258E+001
 21
-2.588190E+001
 31
-1.732051E+002
 12
-8.660254E+001
 22
-5.000000E+001
 32
-1.732051E+002
 13
-8.660254E+001
 23
-5.000000E+001
 33
-1.732051E+002
  0
3DFACE
  8
Layer
 10
-5.000000E+001
 20
-1.339746E+001
 30
-1.931852E+002
 11
-8.660254E+001
 21
-5.000000E+001
 31
-1.732051E+002
 12
-4.482877E+001
 22
-2.588190E+001
 32
-1.931852E+002
 13
-4.482877E+001
 23
-2.588190E+001
 33
-1.931852E+002
  0
3DFACE
  8
Layer
 10
-4.482877E+001
 20
-2.588190E+001
 30
-1.931852E+002
 11
-8.660254E+001
 21
-5.000000E+001
 31
-1.732051E+002
 12
-7.071067E+001
 22
-7.071067E+001
 32
-1.732051E+002
 13
-7.071067E+001
 23
-7.071067E+001
 33
-1.732051E+002
  0
3DFACE
  8
Layer
 10
-4.482877E+001
 20
-2.588190E+001
 30
-1.931852E+002
 11
-7.071067E+001
 21
-7.071067E+001
 31
-1.732051E+002
 12
-3.660254E+001
 22
-3.660254E+001
 32
-1.931852E+002
 13
-3.660254E+001
 23
-3.660254E+001
 33
-1.931852E+002
  0
3DFACE
  8
Layer
 10
-3.660254E+001
 20
-3.660254E+001
 30
-1.931852E+002
 11
-7.071067E+001
 21
-7.071067E+001
 31
-1.732051E+002
 12
-5.000000E+001
 22
-8.660254E+001
 32
-1.732051E+002
 13
-5.000000E+001
 23
-8.660254E+001
 33
-1.732051E+002
  0
3DFACE
  8
Layer
 10
-3.660254E+001
 20
-3.660254E+001
 30
-1.931852E+002
 11
-5.000000E+001
 21
-8.660254E+001
 31
-1.732051E+002
 12
-2.588190E+001
 22
-4.482877E+001
 32
-1.931852E+002
 13
-2.588190E+001
 23
-4.482877E+001
 33
-1.931852E+002
  0
3DFACE
  8
Layer
 10
-2.588190E+001
 20
-4.482877E+001
 30
-1.931852E+002
 11
-5.000000E+001
 21
-8.660254E+001
 31
-1.732051E+002
 12
-2.588190E+001
 22
-9.659258E+001
 32
-1.732051E+002
 13
-2.588190E+001
 23
-9.659258E+001
 33
-1.732051E+002
  0
3DFACE
  8
Layer
 10
-2.588190E+001
 20
-4.482877E+001
 30
-1.931852E+002
 11
-2.588190E+001
 21
-9.659258E+001
 31
-1.732051E+002
 12
-1.339746E+001
 22
-5.000000E+001
 32
-1.931852E+002
 13
-1.339746E+001
 23
-5.000000E+001
 33
-1.931852E+002
  0
3DFACE
  8
Layer
 10
-1.339746E+001
 20
-5.000000E+001
 30
-1.931852E+002
 11
-2.588190E+001
 21
-9.659258E+001
 31
-1.732051E+002
 12
0.000000E+000
 22
-1.000000E+002
 32
-1.732051E+002
 13
0.000000E+000
 23
-1.000000E+002
 33
-1.732051E+002
  0
3DFACE
  8
Layer
 10
-1.339746E+001
 20
-5.000000E+001
 30
-1.931852E+002
 11
0.000000E+000
 21
-1.000000E+002
 31
-1.732051E+002
 12
0.000000E+000
 22
-5.176381E+001
 32
-1.931852E+002
 13
0.000000E+000
 23
-5.176381E+001
 33
-1.931852E+002
  0
3DFACE
  8
Layer
 10
0.000000E+000
 20
-5.176381E+001
 30
-1.931852E+002
 11
0.000000E+000
 21
-1.000000E+002
 31
-1.732051E+002
 12
2.588190E+001
 22
-9.659258E+001
 32
-1.732051E+002
 13
2.588190E+001
 23
-9.659258E+001
 33
-1.732051E+002
  0
3DFACE
  8
Layer
 10
0.000000E+000
 20
-5.176381E+001
 30
-1.931852E+002
 11
2.588190E+001
 21
-9.659258E+001
 31
-1.732051E+002
 12
1.339746E+001
 22
-5.000000E+001
 32
-1.931852E+002
 13
1.339746E+001
 23
-5.000000E+001
 33
-1.931852E+002
  0
3DFACE
  8
Layer
 10
1.339746E+001
 20
-5.000000E+001
 30
-1.931852E+002
 11
2.588190E+001
 21
-9.659258E+001
 31
-1.732051E+002
 12
5.000000E+001
 22
-8.660254E+001
 32
-1.732051E+002
 13
5.000000E+001
 23
-8.660254E+001
 33
-1.732051E+002
  0
3DFACE
  8
Layer
 10
1.339746E+001
 20
-5.000000E+001
 30
-1.931852E+002
 11
5.000000E+001
 21
-8.660254E+001
 31
-1.732051E+002
 12
2.588190E+001
 22
-4.482877E+001
 32
-1.931852E+002
 13
2.588190E+001
 23
-4.482877E+001
 33
-1.931852E+002
  0
3DFACE
  8
Layer
 10
2.588190E+001
 20
-4.482877E+001
 30
-1.931852E+002
 11
5.000000E+001
 21
-8.660254E+001
 31
-1.732051E+002
 12
7.071067E+001
 22
-7.071067E+001
 32
-1.732051E+002
 13
7.071067E+001
 23
-7.071067E+001
 33
-1.732051E+002
  0
3DFACE
  8
Layer
 10
2.588190E+001
 20
-4.482877E+001
 30
-1.931852E+002
 11
7.071067E+001
 21
-7.071067E+001
 31
-1.732051E+002
 12
3.660254E+001
 22
-3.660254E+001
 32
-1.931852E+002
 13
3.660254E+001
 23
-3.660254E+001
 33
-1.931852E+002
  0
3DFACE
  8
Layer
 10
3.660254E+001
 20
-3.660254E+001
 30
-1.931852E+002
 11
7.071067E+001
 21
-7.071067E+001
 31
-1.732051E+002
 12
8.660254E+001
 22
-5.000000E+001
 32
-1.732051E+002
 13
8.660254E+001
 23
-5.000000E+001
 33
-1.732051E+002
  0
3DFACE
  8
Layer
 10
3.660254E+001
 20
-3.660254E+001
 30
-1.931852E+002
 11
8.660254E+001
 21
-5.000000E+001
 31
-1.732051E+002
 12
4.482877E+001
 22
-2.588190E+001
 32
-1.931852E+002
 13
4.482877E+001
 23
-2.588190E+001
 33
-1.931852E+002
  0
3DFACE
  8
Layer
 10
4.482877E+001
 20
-2.588190E+001
 30
-1.931852E+002
 11
8.660254E+001
 21
-5.000000E+001
 31
-1.732051E+002
 12
9.659258E+001
 22
-2.588190E+001
 32
-1.732051E+002
 13
9.659258E+001
 23
-2.588190E+001
 33
-1.732051E+002
  0
3DFACE
  8
Layer
 10
4.482877E+001
 20
-2.588190E+001
 30
-1.931852E+002
 11
9.659258E+001
 21
-2.588190E+001
 31
-1.732051E+002
 12
5.000000E+001
 22
-1.339746E+001
 32
-1.931852E+002
 13
5.000000E+001
 23
-1.339746E+001
 33
-1.931852E+002
  0
3DFACE
  8
Layer
 10
5.000000E+001
 20
-1.339746E+001
 30
-1.931852E+002
 11
9.659258E+001
 21
-2.588190E+001
 31
-1.732051E+002
 12
1.000000E+002
 22
0.000000E+000
 32
-1.732051E+002
 13
1.000000E+002
 23
0.000000E+000
 33
-1.732051E+002
  0
3DFACE
  8
Layer
 10
5.000000E+001
 20
-1.339746E+001
 30
-1.931852E+002
 11
1.000000E+002
 21
0.000000E+000
 31
-1.732051E+002
 12
5.176381E+001
 22
0.000000E+000
 32
-1.931852E+002
 13
5.176381E+001
 23
0.000000E+000
 33
-1.931852E+002
  0
3DFACE
  8
Layer
 10
0.000000E+000
 20
0.000000E+000
 30
-2.000000E+002
 11
5.176381E+001
 21
0.000000E+000
 31
-1.931852E+002
 12
5.000000E+001
 22
1.339746E+001
 32
-1.931852E+002
 13
5.000000E+001
 23
1.339746E+001
 33
-1.931852E+002
  0
3DFACE
  8
Layer
 10
0.000000E+000
 20
0.000000E+000
 30
-2.000000E+002
 11
5.000000E+001
 21
1.339746E+001
 31
-1.931852E+002
 12
4.482877E+001
 22
2.588190E+001
 32
-1.931852E+002
 13
4.482877E+001
 23
2.588190E+001
 33
-1.931852E+002
  0
3DFACE
  8
Layer
 10
0.000000E+000
 20
0.000000E+000
 30
-2.000000E+002
 11
4.482877E+001
 21
2.588190E+001
 31
-1.931852E+002
 12
3.660254E+001
 22
3.660254E+001
 32
-1.931852E+002
 13
3.660254E+001
 23
3.660254E+001
 33
-1.931852E+002
  0
3DFACE
  8
Layer
 10
0.000000E+000
 20
0.000000E+000
 30
-2.000000E+002
 11
3.660254E+001
 21
3.660254E+001
 31
-1.931852E+002
 12
2.588190E+001
 22
4.482877E+001
 32
-1.931852E+002
 13
2.588190E+001
 23
4.482877E+001
 33
-1.931852E+002
  0
3DFACE
  8
Layer
 10
0.000000E+000
 20
0.000000E+000
 30
-2.000000E+002
 11
2.588190E+001
 21
4.482877E+001
 31
-1.931852E+002
 12
1.339746E+001
 22
5.000000E+001
 32
-1.931852E+002
 13
1.339746E+001
 23
5.000000E+001
 33
-1.931852E+002
  0
3DFACE
  8
Layer
 10
0.000000E+000
 20
0.000000E+000
 30
-2.000000E+002
 11
1.339746E+001
 21
5.000000E+001
 31
-1.931852E+002
 12
0.000000E+000
 22
5.176381E+001
 32
-1.931852E+002
 13
0.000000E+000
 23
5.176381E+001
 33
-1.931852E+002
  0
3DFACE
  8
Layer
 10
0.000000E+000
 20
0.000000E+000
 30
-2.000000E+002
 11
0.000000E+000
 21
5.176381E+001
 31
-1.931852E+002
 12
-1.339746E+001
 22
5.000000E+001
 32
-1.931852E+002
 13
-1.339746E+001
 23
5.000000E+001
 33
-1.931852E+002
  0
3DFACE
  8
Layer
 10
0.000000E+000
 20
0.000000E+000
 30
-2.000000E+002
 11
-1.339746E+001
 21
5.000000E+001
 31
-1.931852E+002
 12
-2.588190E+001
 22
4.482877E+001
 32
-1.931852E+002
 13
-2.588190E+001
 23
4.482877E+001
 33
-1.931852E+002
  0
3DFACE
  8
Layer
 10
0.000000E+000
 20
0.000000E+000
 30
-2.000000E+002
 11
-2.588190E+001
 21
4.482877E+001
 31
-1.931852E+002
 12
-3.660254E+001
 22
3.660254E+001
 32
-1.931852E+002
 13
-3.660254E+001
 23
3.660254E+001
 33
-1.931852E+002
  0
3DFACE
  8
Layer
 10
0.000000E+000
 20
0.000000E+000
 30
-2.000000E+002
 11
-3.660254E+001
 21
3.660254E+001
 31
-1.931852E+002
 12
-4.482877E+001
 22
2.588190E+001
 32
-1.931852E+002
 13
-4.482877E+001
 23
2.588190E+001
 33
-1.931852E+002
  0
3DFACE
  8
Layer
 10
0.000000E+000
 20
0.000000E+000
 30
-2.000000E+002
 11
-4.482877E+001
 21
2.588190E+001
 31
-1.931852E+002
 12
-5.000000E+001
 22
1.339746E+001
 32
-1.931852E+002
 13
-5.000000E+001
 23
1.339746E+001
 33
-1.931852E+002
  0
3DFACE
  8
Layer
 10
0.000000E+000
 20
0.000000E+000
 30
-2.000000E+002
 11
-5.000000E+001
 21
1.339746E+001
 31
-1.931852E+002
 12
-5.176381E+001
 22
0.000000E+000
 32
-1.931852E+002
 13
-5.176381E+001
 23
0.000000E+000
 33
-1.931852E+002
  0
3DFACE
  8
Layer
 10
0.000000E+000
 20
0.000000E+000
 30
-2.000000E+002
 11
-5.176381E+001
 21
0.000000E+000
 31
-1.931852E+002
 12
-5.000000E+001
 22
-1.339746E+001
 32
-1.931852E+002
 13
-5.000000E+001
 23
-1.339746E+001
 33
-1.931852E+002
  0
3DFACE
  8
Layer
 10
0.000000E+000
 20
0.000000E+000
 30
-2.000000E+002
 11
-5.000000E+001
 21
-1.339746E+001
 31
-1.931852E+002
 12
-4.482877E+001
 22
-2.588190E+001
 32
-1.931852E+002
 13
-4.482877E+001
 23
-2.588190E+001
 33
-1.931852E+002
  0
3DFACE
  8
Layer
 10
0.000000E+000
 20
0.000000E+000
 30
-2.000000E+002
 11
-4.482877E+001
 21
-2.588190E+001
 31
-1.931852E+002
 12
-3.660254E+001
 22
-3.660254E+001
 32
-1.931852E+002
 13
-3.660254E+001
 23
-3.660254E+001
 33
-1.931852E+002
  0
3DFACE
  8
Layer
 10
0.000000E+000
 20
0.000000E+000
 30
-2.000000E+002
 11
-3.660254E+001
 21
-3.660254E+001
 31
-1.931852E+002
 12
-2.588190E+001
 22
-4.482877E+001
 32
-1.931852E+002
 13
-2.588190E+001
 23
-4.482877E+001
 33
-1.931852E+002
  0
3DFACE
  8
Layer
 10
0.000000E+000
 20
0.000000E+000
 30
-2.000000E+002
 11
-2.588190E+001
 21
-4.482877E+001
 31
-1.931852E+002
 12
-1.339746E+001
 22
-5.000000E+001
 32
-1.931852E+002
 13
-1.339746E+001
 23
-5.000000E+001
 33
-1.931852E+002
  0
3DFACE
  8
Layer
 10
0.000000E+000
 20
0.000000E+000
 30
-2.000000E+002
 11
-1.339746E+001
 21
-5.000000E+001
 31
-1.931852E+002
 12
0.000000E+000
 22
-5.176381E+001
 32
-1.931852E+002
 13
0.000000E+000
 23
-5.176381E+001
 33
-1.931852E+002
  0
3DFACE
  8
Layer
 10
0.000000E+000
 20
0.000000E+000
 30
-2.000000E+002
 11
0.000000E+000
 21
-5.176381E+001
 31
-1.931852E+002
 12
1.339746E+001
 22
-5.000000E+001
 32
-1.931852E+002
 13
1.339746E+001
 23
-5.000000E+001
 33
-1.931852E+002
  0
3DFACE
  8
Layer
 10
0.000000E+000
 20
0.000000E+000
 30
-2.000000E+002
 11
1.339746E+001
 21
-5.000000E+001
 31
-1.931852E+002
 12
2.588190E+001
 22
-4.482877E+001
 32
-1.931852E+002
 13
2.588190E+001
 23
-4.482877E+001
 33
-1.931852E+002
  0
3DFACE
  8
Layer
 10
0.000000E+000
 20
0.000000E+000
 30
-2.000000E+002
 11
2.588190E+001
 21
-4.482877E+001
 31
-1.931852E+002
 12
3.660254E+001
 22
-3.660254E+001
 32
-1.931852E+002
 13
3.660254E+001
 23
-3.660254E+001
 33
-1.931852E+002
  0
3DFACE
  8
Layer
 10
0.000000E+000
 20
0.000000E+000
 30
-2.000000E+002
 11
3.660254E+001
 21
-3.660254E+001
 31
-1.931852E+002
 12
4.482877E+001
 22
-2.588190E+001
 32
-1.931852E+002
 13
4.482877E+001
 23
-2.588190E+001
 33
-1.931852E+002
  0
3DFACE
  8
Layer
 10
0.000000E+000
 20
0.000000E+000
 30
-2.000000E+002
 11
4.482877E+001
 21
-2.588190E+001
 31
-1.931852E+002
 12
5.000000E+001
 22
-1.339746E+001
 32
-1.931852E+002
 13
5.000000E+001
 23
-1.339746E+001
 33
-1.931852E+002
  0
3DFACE
  8
Layer
 10
0.000000E+000
 20
0.000000E+000
 30
-2.000000E+002
 11
5.000000E+001
 21
-1.339746E+001
 31
-1.931852E+002
 12
5.176381E+001
 22
0.000000E+000
 32
-1.931852E+002
 13
5.176381E+001
 23
0.000000E+000
 33
-1.931852E+002
  0
ENDSEC
  0
EOF
